G04*
G04 #@! TF.GenerationSoftware,Altium Limited,Altium Designer,22.11.1 (43)*
G04*
G04 Layer_Color=16711935*
%FSLAX44Y44*%
%MOMM*%
G71*
G04*
G04 #@! TF.SameCoordinates,647DE173-6EC2-479C-8ABE-F2EAD9736DF7*
G04*
G04*
G04 #@! TF.FilePolarity,Negative*
G04*
G01*
G75*
%ADD22C,2.2032*%
%ADD26C,1.7032*%
%ADD27C,3.4032*%
G36*
X249660Y333844D02*
X252132D01*
Y333745D01*
X253517D01*
Y333646D01*
X254604D01*
Y333548D01*
X255494D01*
Y333449D01*
X256384D01*
Y333350D01*
X257373D01*
Y333251D01*
X258065D01*
Y333152D01*
X258560D01*
Y333053D01*
X259252D01*
Y332954D01*
X259845D01*
Y332855D01*
X260439D01*
Y332756D01*
X260933D01*
Y332658D01*
X261428D01*
Y332559D01*
X261922D01*
Y332460D01*
X262515D01*
Y332361D01*
X263010D01*
Y332262D01*
X263405D01*
Y332163D01*
X263801D01*
Y332064D01*
X264196D01*
Y331965D01*
X264691D01*
Y331866D01*
X265185D01*
Y331768D01*
X265482D01*
Y331669D01*
X265877D01*
Y331570D01*
X266273D01*
Y331471D01*
X266669D01*
Y331372D01*
X266965D01*
Y331273D01*
X267262D01*
Y331174D01*
X267658D01*
Y331075D01*
X268053D01*
Y330976D01*
X268350D01*
Y330877D01*
X268745D01*
Y330779D01*
X268943D01*
Y330680D01*
X269339D01*
Y330581D01*
X269635D01*
Y330482D01*
X269932D01*
Y330383D01*
X270130D01*
Y330284D01*
X270426D01*
Y330185D01*
X270723D01*
Y330087D01*
X271020D01*
Y329988D01*
X271316D01*
Y329889D01*
X271514D01*
Y329790D01*
X271811D01*
Y329691D01*
X272107D01*
Y329592D01*
X272305D01*
Y329493D01*
X272602D01*
Y329394D01*
X272800D01*
Y329295D01*
X272997D01*
Y329197D01*
X273294D01*
Y329098D01*
X273492D01*
Y328999D01*
X273788D01*
Y328900D01*
X273986D01*
Y328801D01*
X274184D01*
Y328702D01*
X274481D01*
Y328603D01*
X274678D01*
Y328504D01*
X274876D01*
Y328405D01*
X275173D01*
Y328307D01*
X275371D01*
Y328208D01*
X275568D01*
Y328109D01*
X275766D01*
Y328010D01*
X275964D01*
Y327911D01*
X276162D01*
Y327812D01*
X276360D01*
Y327713D01*
X276557D01*
Y327614D01*
X276755D01*
Y327515D01*
X277052D01*
Y327416D01*
X277151D01*
Y327318D01*
X277348D01*
Y327219D01*
X277546D01*
Y327120D01*
X277744D01*
Y327021D01*
X277942D01*
Y326922D01*
X278139D01*
Y326823D01*
X278337D01*
Y326724D01*
X278436D01*
Y326527D01*
X278337D01*
Y326625D01*
X278041D01*
Y326724D01*
X277744D01*
Y326823D01*
X277546D01*
Y326922D01*
X277348D01*
Y327021D01*
X277052D01*
Y327120D01*
X276854D01*
Y327219D01*
X276656D01*
Y327318D01*
X276458D01*
Y327416D01*
X276162D01*
Y327515D01*
X275865D01*
Y327614D01*
X275667D01*
Y327713D01*
X275371D01*
Y327812D01*
X275173D01*
Y327911D01*
X274876D01*
Y328010D01*
X274580D01*
Y328109D01*
X274283D01*
Y328208D01*
X273986D01*
Y328307D01*
X273690D01*
Y328405D01*
X273393D01*
Y328504D01*
X273195D01*
Y328603D01*
X272899D01*
Y328702D01*
X272602D01*
Y328801D01*
X272305D01*
Y328900D01*
X272008D01*
Y328999D01*
X271712D01*
Y329098D01*
X271415D01*
Y329197D01*
X271119D01*
Y329295D01*
X270822D01*
Y329394D01*
X270426D01*
Y329493D01*
X270130D01*
Y329592D01*
X269833D01*
Y329691D01*
X269536D01*
Y329790D01*
X269240D01*
Y329889D01*
X268844D01*
Y329988D01*
X268547D01*
Y330087D01*
X268152D01*
Y330185D01*
X267855D01*
Y330284D01*
X267460D01*
Y330383D01*
X267064D01*
Y330482D01*
X266669D01*
Y330581D01*
X266273D01*
Y330680D01*
X265976D01*
Y330779D01*
X265482D01*
Y330877D01*
X265086D01*
Y330976D01*
X264691D01*
Y331075D01*
X264196D01*
Y331174D01*
X263801D01*
Y331273D01*
X263307D01*
Y331372D01*
X262812D01*
Y331471D01*
X262416D01*
Y331570D01*
X261922D01*
Y331669D01*
X261329D01*
Y331768D01*
X260834D01*
Y331866D01*
X260340D01*
Y331965D01*
X259845D01*
Y332064D01*
X259252D01*
Y332163D01*
X258659D01*
Y332262D01*
X257967D01*
Y332361D01*
X257373D01*
Y332460D01*
X256780D01*
Y332559D01*
X255989D01*
Y332658D01*
X255297D01*
Y332756D01*
X254506D01*
Y332855D01*
X253616D01*
Y332954D01*
X252824D01*
Y333053D01*
X251737D01*
Y333152D01*
X250649D01*
Y333251D01*
X249363D01*
Y333350D01*
X248078D01*
Y333449D01*
X246298D01*
Y333548D01*
X243628D01*
Y333646D01*
X243727D01*
Y333745D01*
X244221D01*
Y333844D01*
X247089D01*
Y333943D01*
X249660D01*
Y333844D01*
D02*
G37*
G36*
X232849Y323065D02*
X235124D01*
Y322967D01*
X237003D01*
Y322868D01*
X238288D01*
Y322769D01*
X239376D01*
Y322670D01*
X240562D01*
Y322571D01*
X241551D01*
Y322472D01*
X242540D01*
Y322373D01*
X243529D01*
Y322274D01*
X244122D01*
Y322175D01*
X244914D01*
Y322077D01*
X245804D01*
Y321978D01*
X246496D01*
Y321879D01*
X247089D01*
Y321780D01*
X247682D01*
Y321681D01*
X248375D01*
Y321582D01*
X248968D01*
Y321483D01*
X249660D01*
Y321384D01*
X250253D01*
Y321286D01*
X250352D01*
Y321088D01*
X248770D01*
Y321187D01*
X246891D01*
Y321286D01*
X245012D01*
Y321384D01*
X242441D01*
Y321483D01*
X239870D01*
Y321582D01*
X237003D01*
Y321681D01*
X227608D01*
Y321582D01*
X224246D01*
Y321483D01*
X221774D01*
Y321384D01*
X219796D01*
Y321286D01*
X218115D01*
Y321187D01*
X216731D01*
Y321088D01*
X215643D01*
Y320989D01*
X214456D01*
Y320890D01*
X213369D01*
Y320791D01*
X212380D01*
Y320692D01*
X211589D01*
Y320593D01*
X210798D01*
Y320494D01*
X210007D01*
Y320396D01*
X209215D01*
Y320297D01*
X208523D01*
Y320198D01*
X208029D01*
Y319901D01*
X208128D01*
Y319506D01*
X208227D01*
Y319209D01*
X208325D01*
Y318912D01*
X208424D01*
Y318517D01*
X208523D01*
Y318220D01*
X208622D01*
Y317923D01*
X208523D01*
Y318022D01*
X208424D01*
Y318121D01*
X208325D01*
Y318220D01*
X208227D01*
Y318418D01*
X208128D01*
Y318517D01*
X208029D01*
Y318715D01*
X207930D01*
Y318813D01*
X207831D01*
Y319011D01*
X207732D01*
Y319110D01*
X207633D01*
Y319308D01*
X207534D01*
Y319407D01*
X207435D01*
Y319604D01*
X207337D01*
Y319802D01*
X207238D01*
Y319901D01*
X207139D01*
Y320099D01*
X207040D01*
Y320198D01*
X206941D01*
Y320396D01*
X206842D01*
Y320494D01*
X206743D01*
Y320692D01*
X206644D01*
Y320791D01*
X206546D01*
Y320989D01*
X206447D01*
Y321088D01*
X206546D01*
Y321187D01*
X206941D01*
Y321286D01*
X207337D01*
Y321384D01*
X207831D01*
Y321483D01*
X208325D01*
Y321582D01*
X208820D01*
Y321681D01*
X209413D01*
Y321780D01*
X210007D01*
Y321879D01*
X210501D01*
Y321978D01*
X211193D01*
Y322077D01*
X211885D01*
Y322175D01*
X212676D01*
Y322274D01*
X213369D01*
Y322373D01*
X214061D01*
Y322472D01*
X215050D01*
Y322571D01*
X215940D01*
Y322670D01*
X217126D01*
Y322769D01*
X218115D01*
Y322868D01*
X219500D01*
Y322967D01*
X221082D01*
Y323065D01*
X223653D01*
Y323164D01*
X232849D01*
Y323065D01*
D02*
G37*
G36*
X188449Y323659D02*
X189141D01*
Y323560D01*
X189735D01*
Y323461D01*
X190130D01*
Y323362D01*
X190526D01*
Y323263D01*
X190823D01*
Y323164D01*
X191119D01*
Y323065D01*
X191416D01*
Y322967D01*
X191712D01*
Y322868D01*
X192009D01*
Y322769D01*
X192207D01*
Y322670D01*
X192405D01*
Y322571D01*
X192603D01*
Y322472D01*
X192800D01*
Y322373D01*
X192998D01*
Y322274D01*
X193196D01*
Y322175D01*
X193394D01*
Y322077D01*
X193591D01*
Y321978D01*
X193690D01*
Y321879D01*
X193888D01*
Y321780D01*
X193987D01*
Y321681D01*
X194185D01*
Y321582D01*
X194284D01*
Y321483D01*
X194481D01*
Y321384D01*
X194580D01*
Y321286D01*
X194778D01*
Y321187D01*
X194877D01*
Y321088D01*
X194976D01*
Y320989D01*
X195173D01*
Y320890D01*
X195272D01*
Y320791D01*
X195371D01*
Y320692D01*
X195470D01*
Y320593D01*
X195569D01*
Y320494D01*
X195668D01*
Y320396D01*
X195767D01*
Y320297D01*
X195866D01*
Y320198D01*
X196063D01*
Y320000D01*
X196162D01*
Y319901D01*
X196261D01*
Y319802D01*
X196360D01*
Y319604D01*
X196261D01*
Y319703D01*
X196162D01*
Y319802D01*
X196063D01*
Y319901D01*
X195866D01*
Y320000D01*
X195767D01*
Y320099D01*
X195668D01*
Y320198D01*
X195569D01*
Y320297D01*
X195371D01*
Y320396D01*
X195272D01*
Y320494D01*
X195173D01*
Y320593D01*
X195075D01*
Y320692D01*
X194877D01*
Y320791D01*
X194778D01*
Y320890D01*
X194580D01*
Y320989D01*
X194481D01*
Y321088D01*
X194284D01*
Y321187D01*
X194086D01*
Y321286D01*
X193987D01*
Y321384D01*
X193789D01*
Y321483D01*
X193591D01*
Y321582D01*
X193394D01*
Y321681D01*
X193196D01*
Y321780D01*
X192998D01*
Y321879D01*
X192701D01*
Y321978D01*
X192504D01*
Y322077D01*
X192306D01*
Y322175D01*
X192009D01*
Y322274D01*
X191712D01*
Y322373D01*
X191416D01*
Y322472D01*
X191119D01*
Y322571D01*
X190724D01*
Y322670D01*
X190328D01*
Y322769D01*
X189735D01*
Y322868D01*
X188944D01*
Y322967D01*
X186570D01*
Y322868D01*
X185680D01*
Y322769D01*
X185186D01*
Y322670D01*
X184692D01*
Y322571D01*
X184395D01*
Y322472D01*
X184098D01*
Y322373D01*
X183703D01*
Y322274D01*
X183406D01*
Y322175D01*
X183208D01*
Y322077D01*
X182911D01*
Y321978D01*
X182714D01*
Y321879D01*
X182516D01*
Y321780D01*
X182219D01*
Y321681D01*
X182120D01*
Y321582D01*
X181923D01*
Y321483D01*
X181725D01*
Y321384D01*
X181527D01*
Y321286D01*
X181329D01*
Y321187D01*
X181231D01*
Y321088D01*
X181033D01*
Y320989D01*
X180835D01*
Y320890D01*
X180736D01*
Y320791D01*
X180538D01*
Y320692D01*
X180439D01*
Y320593D01*
X180340D01*
Y320494D01*
X180143D01*
Y320396D01*
X180044D01*
Y320297D01*
X179945D01*
Y320198D01*
X179747D01*
Y320099D01*
X179648D01*
Y320000D01*
X179549D01*
Y319901D01*
X179450D01*
Y319802D01*
X179352D01*
Y319703D01*
X179253D01*
Y319604D01*
X179154D01*
Y319506D01*
X179055D01*
Y319407D01*
X178956D01*
Y319308D01*
X178857D01*
Y319209D01*
X178758D01*
Y319110D01*
X178659D01*
Y319011D01*
X178561D01*
Y318912D01*
X178462D01*
Y318813D01*
X178363D01*
Y318715D01*
X178264D01*
Y318517D01*
X178165D01*
Y318418D01*
X178066D01*
Y318319D01*
X177967D01*
Y318220D01*
X177868D01*
Y318022D01*
X177769D01*
Y317923D01*
X177670D01*
Y317824D01*
X177572D01*
Y317627D01*
X177473D01*
Y317528D01*
X177374D01*
Y317330D01*
X177275D01*
Y317231D01*
X177176D01*
Y317033D01*
X177077D01*
Y316836D01*
X176978D01*
Y316737D01*
X176880D01*
Y316539D01*
X176781D01*
Y316341D01*
X176682D01*
Y316143D01*
X176583D01*
Y315946D01*
X176484D01*
Y315748D01*
X176385D01*
Y315649D01*
Y315451D01*
X176286D01*
Y315253D01*
X176187D01*
Y314957D01*
X176088D01*
Y314759D01*
X175989D01*
Y314462D01*
X175891D01*
Y314067D01*
X175792D01*
Y313671D01*
X175693D01*
Y313276D01*
X175594D01*
Y313177D01*
X175495D01*
Y313078D01*
X174506D01*
Y313177D01*
X174308D01*
Y313473D01*
X174407D01*
Y313869D01*
X174506D01*
Y314166D01*
X174605D01*
Y314561D01*
X174704D01*
Y314858D01*
X174803D01*
Y315056D01*
X174902D01*
Y315352D01*
X175001D01*
Y315649D01*
X175100D01*
Y315847D01*
X175198D01*
Y316045D01*
X175297D01*
Y316242D01*
X175396D01*
Y316440D01*
X175495D01*
Y316638D01*
X175594D01*
Y316836D01*
X175693D01*
Y317033D01*
X175792D01*
Y317231D01*
X175891D01*
Y317429D01*
X175989D01*
Y317528D01*
X176088D01*
Y317726D01*
X176187D01*
Y317824D01*
X176286D01*
Y318022D01*
X176385D01*
Y318121D01*
X176484D01*
Y318319D01*
X176583D01*
Y318418D01*
X176682D01*
Y318517D01*
X176781D01*
Y318715D01*
X176880D01*
Y318813D01*
X176978D01*
Y318912D01*
X177077D01*
Y319110D01*
X177176D01*
Y319209D01*
X177275D01*
Y319308D01*
X177374D01*
Y319407D01*
X177473D01*
Y319506D01*
X177572D01*
Y319604D01*
X177670D01*
Y319703D01*
X177769D01*
Y319802D01*
X177868D01*
Y319901D01*
X177967D01*
Y320000D01*
X178066D01*
Y320099D01*
X178165D01*
Y320198D01*
X178264D01*
Y320297D01*
X178363D01*
Y320396D01*
X178462D01*
Y320494D01*
X178561D01*
Y320593D01*
X178659D01*
Y320692D01*
X178857D01*
Y320791D01*
X178956D01*
Y320890D01*
X179055D01*
Y320989D01*
X179154D01*
Y321088D01*
X179352D01*
Y321187D01*
X179450D01*
Y321286D01*
X179549D01*
Y321384D01*
X179747D01*
Y321483D01*
X179846D01*
Y321582D01*
X180044D01*
Y321681D01*
X180143D01*
Y321780D01*
X180340D01*
Y321879D01*
X180439D01*
Y321978D01*
X180637D01*
Y322077D01*
X180835D01*
Y322175D01*
X181033D01*
Y322274D01*
X181231D01*
Y322373D01*
X181428D01*
Y322472D01*
X181626D01*
Y322571D01*
X181824D01*
Y322670D01*
X182022D01*
Y322769D01*
X182318D01*
Y322868D01*
X182516D01*
Y322967D01*
X182813D01*
Y323065D01*
X183109D01*
Y323164D01*
X183406D01*
Y323263D01*
X183703D01*
Y323362D01*
X184098D01*
Y323461D01*
X184593D01*
Y323560D01*
X185186D01*
Y323659D01*
X185878D01*
Y323758D01*
X188449D01*
Y323659D01*
D02*
G37*
G36*
X242540Y344623D02*
X243430D01*
Y344524D01*
X244122D01*
Y344425D01*
X244815D01*
Y344326D01*
X245507D01*
Y344227D01*
X246100D01*
Y344128D01*
X246693D01*
Y344030D01*
X247089D01*
Y343931D01*
X247584D01*
Y343832D01*
X248078D01*
Y343733D01*
X248473D01*
Y343634D01*
X248869D01*
Y343535D01*
X249265D01*
Y343436D01*
X249561D01*
Y343337D01*
X249957D01*
Y343238D01*
X250352D01*
Y343139D01*
X250649D01*
Y343041D01*
X251045D01*
Y342942D01*
X251341D01*
Y342843D01*
X251638D01*
Y342744D01*
X252033D01*
Y342645D01*
X252231D01*
Y342546D01*
X252528D01*
Y342447D01*
X252824D01*
Y342348D01*
X253220D01*
Y342249D01*
X253517D01*
Y342151D01*
X253715D01*
Y342052D01*
X254011D01*
Y341953D01*
X254308D01*
Y341854D01*
X254506D01*
Y341755D01*
X254802D01*
Y341656D01*
X255000D01*
Y341557D01*
X255297D01*
Y341458D01*
X255593D01*
Y341360D01*
X255890D01*
Y341261D01*
X256088D01*
Y341162D01*
X256384D01*
Y341063D01*
X256582D01*
Y340964D01*
X256780D01*
Y340865D01*
X257077D01*
Y340766D01*
X257274D01*
Y340667D01*
X257472D01*
Y340569D01*
X257670D01*
Y340470D01*
X257967D01*
Y340371D01*
X258164D01*
Y340272D01*
X258362D01*
Y340173D01*
X258560D01*
Y340074D01*
X258857D01*
Y339975D01*
X259054D01*
Y339876D01*
X259252D01*
Y339777D01*
X259450D01*
Y339678D01*
X259648D01*
Y339580D01*
X259845D01*
Y339481D01*
X260043D01*
Y339382D01*
X260241D01*
Y339283D01*
X260439D01*
Y339184D01*
X260637D01*
Y339085D01*
X260933D01*
Y338986D01*
X261131D01*
Y338887D01*
X261329D01*
Y338788D01*
X261527D01*
Y338690D01*
X261724D01*
Y338591D01*
X261922D01*
Y338492D01*
X262120D01*
Y338393D01*
X262318D01*
Y338294D01*
X262515D01*
Y338195D01*
X262713D01*
Y338096D01*
X262911D01*
Y337997D01*
X263109D01*
Y337898D01*
X263307D01*
Y337800D01*
X263504D01*
Y337701D01*
X263702D01*
Y337602D01*
X263900D01*
Y337503D01*
X264098D01*
Y337404D01*
X264196D01*
Y337305D01*
X264394D01*
Y337206D01*
X264592D01*
Y337107D01*
X264790D01*
Y337009D01*
X264988D01*
Y336910D01*
X265185D01*
Y336811D01*
X265383D01*
Y336712D01*
X265581D01*
Y336613D01*
X265779D01*
Y336514D01*
X265877D01*
Y336415D01*
X266075D01*
Y336316D01*
X266273D01*
Y336217D01*
X266471D01*
Y336119D01*
X266669D01*
Y336020D01*
X266866D01*
Y335921D01*
X267064D01*
Y335822D01*
X267163D01*
Y335723D01*
X267460D01*
Y335624D01*
X267559D01*
Y335525D01*
X267756D01*
Y335426D01*
X267954D01*
Y335327D01*
X268152D01*
Y335229D01*
X268350D01*
Y335130D01*
X268547D01*
Y335031D01*
X268646D01*
Y334932D01*
X268844D01*
Y334833D01*
X269042D01*
Y334734D01*
X269240D01*
Y334635D01*
X269438D01*
Y334536D01*
X269536D01*
Y334437D01*
X269734D01*
Y334339D01*
X269932D01*
Y334240D01*
X270130D01*
Y334141D01*
X270327D01*
Y334042D01*
X270426D01*
Y333943D01*
X270624D01*
Y333844D01*
X270822D01*
Y333745D01*
X271020D01*
Y333646D01*
X271119D01*
Y333548D01*
X271316D01*
Y333449D01*
X271514D01*
Y333350D01*
X271712D01*
Y333251D01*
X271811D01*
Y333152D01*
X272008D01*
Y333053D01*
X272206D01*
Y332954D01*
X272404D01*
Y332855D01*
X272602D01*
Y332756D01*
X272701D01*
Y332658D01*
X272899D01*
Y332559D01*
X273096D01*
Y332460D01*
X273294D01*
Y332361D01*
X273393D01*
Y332262D01*
X273591D01*
Y332163D01*
X273788D01*
Y332064D01*
X273887D01*
Y331965D01*
X274085D01*
Y331866D01*
X274283D01*
Y331768D01*
X274481D01*
Y331669D01*
X274580D01*
Y331570D01*
X274777D01*
Y331471D01*
X274975D01*
Y331372D01*
X275173D01*
Y331273D01*
X275272D01*
Y331174D01*
X275469D01*
Y331075D01*
X275667D01*
Y330976D01*
X275865D01*
Y330877D01*
X275964D01*
Y330779D01*
X276162D01*
Y330680D01*
X276360D01*
Y330581D01*
X276458D01*
Y330482D01*
X276656D01*
Y330383D01*
X276854D01*
Y330284D01*
X276953D01*
Y330185D01*
X277151D01*
Y330087D01*
X277348D01*
Y329988D01*
X277546D01*
Y329889D01*
X277645D01*
Y329790D01*
X277843D01*
Y329691D01*
X278041D01*
Y329592D01*
X278238D01*
Y329493D01*
X278337D01*
Y329394D01*
X278535D01*
Y329295D01*
X278733D01*
Y329197D01*
X278931D01*
Y329098D01*
X279030D01*
Y328999D01*
X279227D01*
Y328900D01*
X279425D01*
Y328801D01*
X279524D01*
Y328702D01*
X279722D01*
Y328603D01*
X279919D01*
Y328504D01*
X280117D01*
Y328405D01*
X280216D01*
Y328307D01*
X280414D01*
Y328208D01*
X280612D01*
Y328109D01*
X280711D01*
Y328010D01*
X280908D01*
Y327911D01*
X281106D01*
Y327812D01*
X281205D01*
Y327713D01*
X281403D01*
Y327614D01*
X281600D01*
Y327515D01*
X281699D01*
Y327416D01*
X281897D01*
Y327318D01*
X282095D01*
Y327219D01*
X282194D01*
Y327120D01*
X282392D01*
Y327021D01*
X282589D01*
Y326922D01*
X282787D01*
Y326823D01*
X282886D01*
Y326724D01*
X283084D01*
Y326625D01*
X283282D01*
Y326527D01*
X283479D01*
Y326428D01*
X283578D01*
Y326329D01*
X283776D01*
Y326230D01*
X283974D01*
Y326131D01*
X284172D01*
Y326032D01*
X284369D01*
Y325933D01*
X284567D01*
Y325834D01*
X284765D01*
Y325735D01*
X284963D01*
Y325636D01*
X285062D01*
Y325538D01*
X285259D01*
Y325439D01*
X285457D01*
Y325340D01*
X285655D01*
Y325241D01*
X285853D01*
Y325142D01*
X286050D01*
Y325043D01*
X286248D01*
Y324944D01*
X286446D01*
Y324846D01*
X286644D01*
Y324747D01*
X286842D01*
Y324648D01*
X287039D01*
Y324549D01*
X287237D01*
Y324450D01*
X287435D01*
Y324351D01*
X287633D01*
Y324252D01*
X287929D01*
Y324153D01*
X288127D01*
Y324054D01*
X288325D01*
Y323955D01*
X288523D01*
Y323857D01*
X288720D01*
Y323758D01*
X288918D01*
Y323659D01*
X289215D01*
Y323560D01*
X289413D01*
Y323461D01*
X289709D01*
Y323362D01*
X289907D01*
Y323263D01*
X290105D01*
Y323164D01*
X290401D01*
Y323065D01*
X290599D01*
Y322967D01*
X290797D01*
Y322868D01*
X290896D01*
Y322769D01*
X291094D01*
Y322670D01*
X291291D01*
Y322571D01*
X291390D01*
Y322472D01*
X291489D01*
Y322373D01*
X291687D01*
Y322274D01*
X291786D01*
Y322175D01*
X291885D01*
Y322077D01*
X291984D01*
Y321978D01*
X292083D01*
Y321879D01*
X292181D01*
Y321780D01*
X292280D01*
Y321681D01*
X292379D01*
Y321582D01*
X292478D01*
Y321483D01*
X292577D01*
Y321384D01*
X292676D01*
Y321286D01*
X292775D01*
Y321088D01*
X292874D01*
Y320989D01*
X292973D01*
Y320890D01*
X293071D01*
Y320692D01*
X293170D01*
Y320494D01*
X293269D01*
Y320297D01*
X293368D01*
Y320099D01*
X293467D01*
Y319901D01*
X293566D01*
Y319110D01*
X293467D01*
Y319011D01*
X292577D01*
Y319110D01*
X286644D01*
Y319011D01*
X285062D01*
Y318912D01*
X284270D01*
Y318813D01*
X283578D01*
Y318715D01*
X282985D01*
Y318616D01*
X282491D01*
Y318517D01*
X282095D01*
Y318418D01*
X281798D01*
Y318319D01*
X281502D01*
Y318220D01*
X281304D01*
Y318121D01*
X281205D01*
Y318022D01*
X281007D01*
Y317923D01*
X280908D01*
Y317824D01*
X280711D01*
Y318022D01*
X280809D01*
Y318121D01*
X280908D01*
Y318220D01*
X281106D01*
Y318319D01*
X281205D01*
Y318418D01*
X281403D01*
Y318517D01*
X281600D01*
Y318616D01*
X281897D01*
Y318715D01*
X282194D01*
Y318813D01*
X282589D01*
Y318912D01*
X282985D01*
Y319011D01*
X283381D01*
Y319110D01*
X284073D01*
Y319209D01*
X285062D01*
Y319308D01*
X286149D01*
Y319407D01*
X287534D01*
Y319506D01*
X290401D01*
Y319604D01*
X290599D01*
Y319506D01*
X290797D01*
Y319604D01*
X291094D01*
Y319506D01*
X291489D01*
Y319604D01*
X291687D01*
Y319506D01*
X293071D01*
Y319802D01*
X292973D01*
Y320099D01*
X292874D01*
Y320198D01*
X292775D01*
Y320396D01*
X292676D01*
Y320494D01*
X292577D01*
Y320692D01*
X292478D01*
Y320791D01*
X292379D01*
Y320890D01*
X292280D01*
Y321088D01*
X292181D01*
Y321187D01*
X292083D01*
Y321286D01*
X291984D01*
Y321384D01*
X291885D01*
Y321483D01*
X291786D01*
Y321582D01*
X291588D01*
Y321681D01*
X291489D01*
Y321780D01*
X291390D01*
Y321879D01*
X291291D01*
Y321978D01*
X291094D01*
Y322077D01*
X290995D01*
Y322175D01*
X290797D01*
Y322274D01*
X290599D01*
Y322373D01*
X290401D01*
Y322472D01*
X290204D01*
Y322571D01*
X290006D01*
Y322670D01*
X289709D01*
Y322769D01*
X289512D01*
Y322868D01*
X289215D01*
Y322967D01*
X289017D01*
Y323065D01*
X288720D01*
Y323164D01*
X288523D01*
Y323263D01*
X288226D01*
Y323362D01*
X288028D01*
Y323461D01*
X287830D01*
Y323560D01*
X287633D01*
Y323659D01*
X287336D01*
Y323758D01*
X287138D01*
Y323857D01*
X286940D01*
Y323955D01*
X286743D01*
Y324054D01*
X286545D01*
Y324153D01*
X286248D01*
Y324252D01*
X286050D01*
Y324351D01*
X285853D01*
Y324450D01*
X285655D01*
Y324549D01*
X285457D01*
Y324648D01*
X285259D01*
Y324747D01*
X285062D01*
Y324846D01*
X284864D01*
Y324944D01*
X284666D01*
Y325043D01*
X284468D01*
Y325142D01*
X284270D01*
Y325241D01*
X284073D01*
Y325340D01*
X283875D01*
Y325439D01*
X283677D01*
Y325538D01*
X283479D01*
Y325636D01*
X283282D01*
Y325735D01*
X283084D01*
Y325834D01*
X282886D01*
Y325933D01*
X282787D01*
Y326032D01*
X282589D01*
Y326131D01*
X282392D01*
Y326230D01*
X282194D01*
Y326329D01*
X281996D01*
Y326428D01*
X281798D01*
Y326527D01*
X281600D01*
Y326625D01*
X281403D01*
Y326724D01*
X281304D01*
Y326823D01*
X281106D01*
Y326922D01*
X280908D01*
Y327021D01*
X280711D01*
Y327120D01*
X280513D01*
Y327219D01*
X280414D01*
Y327318D01*
X280216D01*
Y327416D01*
X280018D01*
Y327515D01*
X279820D01*
Y327614D01*
X279722D01*
Y327713D01*
X279524D01*
Y327812D01*
X279326D01*
Y327911D01*
X279227D01*
Y328010D01*
X279030D01*
Y328109D01*
X278832D01*
Y328208D01*
X278634D01*
Y328307D01*
X278436D01*
Y328405D01*
X278337D01*
Y328504D01*
X278139D01*
Y328603D01*
X277942D01*
Y328702D01*
X277744D01*
Y328801D01*
X277546D01*
Y328900D01*
X277348D01*
Y328999D01*
X277250D01*
Y329098D01*
X277052D01*
Y329197D01*
X276854D01*
Y329295D01*
X276656D01*
Y329394D01*
X276458D01*
Y329493D01*
X276360D01*
Y329592D01*
X276162D01*
Y329691D01*
X275964D01*
Y329790D01*
X275766D01*
Y329889D01*
X275568D01*
Y329988D01*
X275469D01*
Y330087D01*
X275272D01*
Y330185D01*
X275074D01*
Y330284D01*
X274876D01*
Y330383D01*
X274678D01*
Y330482D01*
X274580D01*
Y330581D01*
X274382D01*
Y330680D01*
X274184D01*
Y330779D01*
X273986D01*
Y330877D01*
X273887D01*
Y330976D01*
X273690D01*
Y331075D01*
X273492D01*
Y331174D01*
X273294D01*
Y331273D01*
X273096D01*
Y331372D01*
X272997D01*
Y331471D01*
X272800D01*
Y331570D01*
X272602D01*
Y331669D01*
X272404D01*
Y331768D01*
X272305D01*
Y331866D01*
X272107D01*
Y331965D01*
X271910D01*
Y332064D01*
X271712D01*
Y332163D01*
X271514D01*
Y332262D01*
X271316D01*
Y332361D01*
X271119D01*
Y332460D01*
X271020D01*
Y332559D01*
X270822D01*
Y332658D01*
X270624D01*
Y332756D01*
X270426D01*
Y332855D01*
X270229D01*
Y332954D01*
X270031D01*
Y333053D01*
X269932D01*
Y333152D01*
X269734D01*
Y333251D01*
X269536D01*
Y333350D01*
X269339D01*
Y333449D01*
X269141D01*
Y333548D01*
X268943D01*
Y333646D01*
X268745D01*
Y333745D01*
X268646D01*
Y333844D01*
X268449D01*
Y333943D01*
X268251D01*
Y334042D01*
X268053D01*
Y334141D01*
X267855D01*
Y334240D01*
X267658D01*
Y334339D01*
X267460D01*
Y334437D01*
X267361D01*
Y334536D01*
X267163D01*
Y334635D01*
X266965D01*
Y334734D01*
X266768D01*
Y334833D01*
X266570D01*
Y334932D01*
X266372D01*
Y335031D01*
X266174D01*
Y335130D01*
X265976D01*
Y335229D01*
X265779D01*
Y335327D01*
X265581D01*
Y335426D01*
X265383D01*
Y335525D01*
X265185D01*
Y335624D01*
X264988D01*
Y335723D01*
X264790D01*
Y335822D01*
X264592D01*
Y335921D01*
X264394D01*
Y336020D01*
X264196D01*
Y336119D01*
X263999D01*
Y336217D01*
X263801D01*
Y336316D01*
X263603D01*
Y336415D01*
X263405D01*
Y336514D01*
X263208D01*
Y336613D01*
X263010D01*
Y336712D01*
X262911D01*
Y336811D01*
X262614D01*
Y336910D01*
X262416D01*
Y337009D01*
X262219D01*
Y337107D01*
X262021D01*
Y337206D01*
X261823D01*
Y337305D01*
X261625D01*
Y337404D01*
X261428D01*
Y337503D01*
X261230D01*
Y337602D01*
X261032D01*
Y337701D01*
X260834D01*
Y337800D01*
X260637D01*
Y337898D01*
X260439D01*
Y337997D01*
X260142D01*
Y338096D01*
X259944D01*
Y338195D01*
X259746D01*
Y338294D01*
X259549D01*
Y338393D01*
X259351D01*
Y338492D01*
X259153D01*
Y338591D01*
X258955D01*
Y338690D01*
X258758D01*
Y338788D01*
X258461D01*
Y338887D01*
X258263D01*
Y338986D01*
X258065D01*
Y339085D01*
X257868D01*
Y339184D01*
X257571D01*
Y339283D01*
X257373D01*
Y339382D01*
X257077D01*
Y339481D01*
X256879D01*
Y339580D01*
X256681D01*
Y339678D01*
X256483D01*
Y339777D01*
X256187D01*
Y339876D01*
X255989D01*
Y339975D01*
X255692D01*
Y340074D01*
X255494D01*
Y340173D01*
X255198D01*
Y340272D01*
X254901D01*
Y340371D01*
X254604D01*
Y340470D01*
X254407D01*
Y340569D01*
X254110D01*
Y340667D01*
X253912D01*
Y340766D01*
X253616D01*
Y340865D01*
X253319D01*
Y340964D01*
X253022D01*
Y341063D01*
X252726D01*
Y341162D01*
X252429D01*
Y341261D01*
X252033D01*
Y341360D01*
X251836D01*
Y341458D01*
X251440D01*
Y341557D01*
X251143D01*
Y341656D01*
X250748D01*
Y341755D01*
X250451D01*
Y341854D01*
X250056D01*
Y341953D01*
X249759D01*
Y342052D01*
X249363D01*
Y342151D01*
X248968D01*
Y342249D01*
X248572D01*
Y342348D01*
X248177D01*
Y342447D01*
X247682D01*
Y342546D01*
X247188D01*
Y342645D01*
X246693D01*
Y342744D01*
X246199D01*
Y342843D01*
X245606D01*
Y342942D01*
X245012D01*
Y343041D01*
X244221D01*
Y343139D01*
X243331D01*
Y343238D01*
X242342D01*
Y343337D01*
X237695D01*
Y343238D01*
X237003D01*
Y343139D01*
X236805D01*
Y342942D01*
X236904D01*
Y342843D01*
X237003D01*
Y342744D01*
X237101D01*
Y342546D01*
X237200D01*
Y342447D01*
X237299D01*
Y342348D01*
X237398D01*
Y342151D01*
X237497D01*
Y342052D01*
X237596D01*
Y341854D01*
X237695D01*
Y341755D01*
X237794D01*
Y341656D01*
X237893D01*
Y341458D01*
X237991D01*
Y341360D01*
X238090D01*
Y341162D01*
X238189D01*
Y341063D01*
X238288D01*
Y340964D01*
X238387D01*
Y340766D01*
X238486D01*
Y340667D01*
X238585D01*
Y340569D01*
X238684D01*
Y340371D01*
X238783D01*
Y340272D01*
X238881D01*
Y340074D01*
X238980D01*
Y339975D01*
X239079D01*
Y339876D01*
X239178D01*
Y339678D01*
X239277D01*
Y339580D01*
X239376D01*
Y339481D01*
X239475D01*
Y339283D01*
X239574D01*
Y339184D01*
X239673D01*
Y339085D01*
X239771D01*
Y338887D01*
X239870D01*
Y338788D01*
X239969D01*
Y338591D01*
X240068D01*
Y338492D01*
X240167D01*
Y338393D01*
X240266D01*
Y338195D01*
X240365D01*
Y338096D01*
X240464D01*
Y337997D01*
X240562D01*
Y337898D01*
X240661D01*
Y337701D01*
X240760D01*
Y337602D01*
X240859D01*
Y337503D01*
X240958D01*
Y337305D01*
X241057D01*
Y337206D01*
X241156D01*
Y337107D01*
X241255D01*
Y336910D01*
X241354D01*
Y336811D01*
X241453D01*
Y336712D01*
X241551D01*
Y336514D01*
X241650D01*
Y336415D01*
X241749D01*
Y336217D01*
X241848D01*
Y336020D01*
X241947D01*
Y335723D01*
X242046D01*
Y335426D01*
X242145D01*
Y334437D01*
X242046D01*
Y334042D01*
X241947D01*
Y333844D01*
X241848D01*
Y333646D01*
X241749D01*
Y333449D01*
X241650D01*
Y333350D01*
X241551D01*
Y333152D01*
X241453D01*
Y333053D01*
X241354D01*
Y332954D01*
X241255D01*
Y332855D01*
X241156D01*
Y332756D01*
X241057D01*
Y332658D01*
X240958D01*
Y332559D01*
X240859D01*
Y332460D01*
X240760D01*
Y332361D01*
X240562D01*
Y332262D01*
X240464D01*
Y332163D01*
X240266D01*
Y332064D01*
X240167D01*
Y331965D01*
X239969D01*
Y331866D01*
X239870D01*
Y331768D01*
X239673D01*
Y331669D01*
X239475D01*
Y331570D01*
X239277D01*
Y331471D01*
X239079D01*
Y331372D01*
X238881D01*
Y331273D01*
X238684D01*
Y331174D01*
X238387D01*
Y331075D01*
X238189D01*
Y330976D01*
X237893D01*
Y330877D01*
X237695D01*
Y330779D01*
X237398D01*
Y330680D01*
X237101D01*
Y330581D01*
X236805D01*
Y330482D01*
X236508D01*
Y330383D01*
X236113D01*
Y330284D01*
X235717D01*
Y330185D01*
X235322D01*
Y330087D01*
X234926D01*
Y329988D01*
X234531D01*
Y329889D01*
X234036D01*
Y329790D01*
X233542D01*
Y329691D01*
X233146D01*
Y329592D01*
X232750D01*
Y329493D01*
X232256D01*
Y329394D01*
X231762D01*
Y329295D01*
X231267D01*
Y329197D01*
X230773D01*
Y329098D01*
X230377D01*
Y328999D01*
X229784D01*
Y328900D01*
X229289D01*
Y328801D01*
X228795D01*
Y328702D01*
X228301D01*
Y328603D01*
X227806D01*
Y328504D01*
X227213D01*
Y328405D01*
X226619D01*
Y328307D01*
X226125D01*
Y328208D01*
X225631D01*
Y328109D01*
X225037D01*
Y328010D01*
X224444D01*
Y327911D01*
X223851D01*
Y327812D01*
X223257D01*
Y327713D01*
X222763D01*
Y327614D01*
X222170D01*
Y327515D01*
X221576D01*
Y327416D01*
X220983D01*
Y327318D01*
X220291D01*
Y327219D01*
X219796D01*
Y327120D01*
X219203D01*
Y327021D01*
X218511D01*
Y326922D01*
X217917D01*
Y326823D01*
X217225D01*
Y326724D01*
X216731D01*
Y326625D01*
X216039D01*
Y326527D01*
X215346D01*
Y326428D01*
X214654D01*
Y326329D01*
X214061D01*
Y326230D01*
X213468D01*
Y326131D01*
X212775D01*
Y326032D01*
X212083D01*
Y325933D01*
X211391D01*
Y325834D01*
X210798D01*
Y325735D01*
X210105D01*
Y325636D01*
X209413D01*
Y325538D01*
X208523D01*
Y325439D01*
X207930D01*
Y325340D01*
X207238D01*
Y325241D01*
X206546D01*
Y325142D01*
X205754D01*
Y325043D01*
X204963D01*
Y324944D01*
X204271D01*
Y324846D01*
X203579D01*
Y324747D01*
X202293D01*
Y324846D01*
X201997D01*
Y324944D01*
X201799D01*
Y325043D01*
X201601D01*
Y325142D01*
X201502D01*
Y325241D01*
X201304D01*
Y325340D01*
X201206D01*
Y325439D01*
X201107D01*
Y325538D01*
X201008D01*
Y325735D01*
X200909D01*
Y325834D01*
X200810D01*
Y326032D01*
X200711D01*
Y326230D01*
X200612D01*
Y326428D01*
X200513D01*
Y326724D01*
X200415D01*
Y326922D01*
X200316D01*
Y327219D01*
X200217D01*
Y327416D01*
X199228D01*
Y327318D01*
X197646D01*
Y327219D01*
X195965D01*
Y327120D01*
X193987D01*
Y327021D01*
X192504D01*
Y326922D01*
X191416D01*
Y326823D01*
X190427D01*
Y326724D01*
X189339D01*
Y326625D01*
X188251D01*
Y326527D01*
X187065D01*
Y326428D01*
X185977D01*
Y326329D01*
X185285D01*
Y326230D01*
X184494D01*
Y326131D01*
X183703D01*
Y326032D01*
X182813D01*
Y325933D01*
X182120D01*
Y325834D01*
X181329D01*
Y325735D01*
X180637D01*
Y325636D01*
X179846D01*
Y325538D01*
X179055D01*
Y325439D01*
X178462D01*
Y325340D01*
X177967D01*
Y325241D01*
X177275D01*
Y325142D01*
X176682D01*
Y325043D01*
X176088D01*
Y324944D01*
X175396D01*
Y324846D01*
X174902D01*
Y324747D01*
X174308D01*
Y324648D01*
X173616D01*
Y324549D01*
X173122D01*
Y324450D01*
X172627D01*
Y324351D01*
X172133D01*
Y324252D01*
X171639D01*
Y324153D01*
X171144D01*
Y324054D01*
X170650D01*
Y323955D01*
X170155D01*
Y323857D01*
X169661D01*
Y323758D01*
X169166D01*
Y323659D01*
X168672D01*
Y323560D01*
X168177D01*
Y323461D01*
X167782D01*
Y323362D01*
X167287D01*
Y323263D01*
X166892D01*
Y323164D01*
X166496D01*
Y323065D01*
X166101D01*
Y322967D01*
X165705D01*
Y322868D01*
X165211D01*
Y322769D01*
X164815D01*
Y322670D01*
X164420D01*
Y322571D01*
X164024D01*
Y322472D01*
X163629D01*
Y322373D01*
X163233D01*
Y322274D01*
X162739D01*
Y322175D01*
X162343D01*
Y322077D01*
X162046D01*
Y321978D01*
X161651D01*
Y321879D01*
X161354D01*
Y321780D01*
X160959D01*
Y321681D01*
X160563D01*
Y321582D01*
X160266D01*
Y321483D01*
X159871D01*
Y321384D01*
X159574D01*
Y321286D01*
X159179D01*
Y321187D01*
X158783D01*
Y321088D01*
X158487D01*
Y320989D01*
X158091D01*
Y320890D01*
X157794D01*
Y320791D01*
X157399D01*
Y320692D01*
X157102D01*
Y320593D01*
X156805D01*
Y320494D01*
X156509D01*
Y320396D01*
X156212D01*
Y320297D01*
X155817D01*
Y320198D01*
X155619D01*
Y320099D01*
X155223D01*
Y320000D01*
X154927D01*
Y319901D01*
X154630D01*
Y319802D01*
X154333D01*
Y319703D01*
X154037D01*
Y319604D01*
X153740D01*
Y319506D01*
X153443D01*
Y319407D01*
X153147D01*
Y319308D01*
X152850D01*
Y319209D01*
X152553D01*
Y319110D01*
X152257D01*
Y319011D01*
X151960D01*
Y318912D01*
X151762D01*
Y318813D01*
X151466D01*
Y318715D01*
X151169D01*
Y318616D01*
X150872D01*
Y318517D01*
X150576D01*
Y318418D01*
X150279D01*
Y318319D01*
X150081D01*
Y318220D01*
X149784D01*
Y318121D01*
X149587D01*
Y318022D01*
X149290D01*
Y317923D01*
X149092D01*
Y317824D01*
X148796D01*
Y317726D01*
X148598D01*
Y317627D01*
X148301D01*
Y317528D01*
X148005D01*
Y317429D01*
X147807D01*
Y317330D01*
X147510D01*
Y317231D01*
X147312D01*
Y317132D01*
X147016D01*
Y317033D01*
X146818D01*
Y316935D01*
X146620D01*
Y316836D01*
X146323D01*
Y316737D01*
X146126D01*
Y316638D01*
X145928D01*
Y316539D01*
X145631D01*
Y316440D01*
X145434D01*
Y316341D01*
X145236D01*
Y316242D01*
X144939D01*
Y316143D01*
X144741D01*
Y316045D01*
X144544D01*
Y315946D01*
X144346D01*
Y315847D01*
X144148D01*
Y315748D01*
X143851D01*
Y315649D01*
X143653D01*
Y315550D01*
X143456D01*
Y315451D01*
X143258D01*
Y315352D01*
X143060D01*
Y315253D01*
X142764D01*
Y315154D01*
X142566D01*
Y315056D01*
X142368D01*
Y314957D01*
X142170D01*
Y314858D01*
X141973D01*
Y314759D01*
X141775D01*
Y314660D01*
X141577D01*
Y314561D01*
X141379D01*
Y314462D01*
X141280D01*
Y314363D01*
X140984D01*
Y314265D01*
X140786D01*
Y314166D01*
X140588D01*
Y314067D01*
X140489D01*
Y313968D01*
X140291D01*
Y313869D01*
X140094D01*
Y313770D01*
X139896D01*
Y313671D01*
X139698D01*
Y313572D01*
X139500D01*
Y313473D01*
X139401D01*
Y313375D01*
X139204D01*
Y313276D01*
X139006D01*
Y313177D01*
X138808D01*
Y313078D01*
X138709D01*
Y312979D01*
X138511D01*
Y312880D01*
X138314D01*
Y312781D01*
X138215D01*
Y312682D01*
X138116D01*
Y312584D01*
X138017D01*
Y312188D01*
X138116D01*
Y311792D01*
X138215D01*
Y311595D01*
X138314D01*
Y311397D01*
X138413D01*
Y311199D01*
X138511D01*
Y311001D01*
X138610D01*
Y310902D01*
X138709D01*
Y310705D01*
X138808D01*
Y310606D01*
X138907D01*
Y310507D01*
X139006D01*
Y310309D01*
X139105D01*
Y310210D01*
X139204D01*
Y310111D01*
X139303D01*
Y310012D01*
X139401D01*
Y309914D01*
X139500D01*
Y309815D01*
X139599D01*
Y309716D01*
X139698D01*
Y309617D01*
X139797D01*
Y309518D01*
X139896D01*
Y309419D01*
X139995D01*
Y309320D01*
X140094D01*
Y309221D01*
X140192D01*
Y309122D01*
X140291D01*
Y309024D01*
X140390D01*
Y308925D01*
X140489D01*
Y308826D01*
X140588D01*
Y308727D01*
X140687D01*
Y308628D01*
X140885D01*
Y308529D01*
X140984D01*
Y308430D01*
X141082D01*
Y308331D01*
X141181D01*
Y308232D01*
X141280D01*
Y308134D01*
X141478D01*
Y308035D01*
X141577D01*
Y307936D01*
X141676D01*
Y307837D01*
X141775D01*
Y307738D01*
X141973D01*
Y307639D01*
X142071D01*
Y307540D01*
X142170D01*
Y307441D01*
X142368D01*
Y307342D01*
X142467D01*
Y307244D01*
X142665D01*
Y307145D01*
X142764D01*
Y307046D01*
X142862D01*
Y306947D01*
X143060D01*
Y306848D01*
X143159D01*
Y306749D01*
X143357D01*
Y306650D01*
X143456D01*
Y306551D01*
X143653D01*
Y306453D01*
X143752D01*
Y306354D01*
X143950D01*
Y306255D01*
X144049D01*
Y306156D01*
X144247D01*
Y306057D01*
X144346D01*
Y305958D01*
X144544D01*
Y305859D01*
X144642D01*
Y305760D01*
X144840D01*
Y305661D01*
X145038D01*
Y305562D01*
X145137D01*
Y305464D01*
X145335D01*
Y305365D01*
X145434D01*
Y305266D01*
X145631D01*
Y305167D01*
X145829D01*
Y305068D01*
X145928D01*
Y304969D01*
X146126D01*
Y304870D01*
X146323D01*
Y304771D01*
X146422D01*
Y304673D01*
X146620D01*
Y304574D01*
X146818D01*
Y304475D01*
X147016D01*
Y304376D01*
X147115D01*
Y304277D01*
X147312D01*
Y304178D01*
X147510D01*
Y304079D01*
X147708D01*
Y303980D01*
X147906D01*
Y303881D01*
X148005D01*
Y303783D01*
X148202D01*
Y303684D01*
X148400D01*
Y303585D01*
X148598D01*
Y303486D01*
X148796D01*
Y303387D01*
X148993D01*
Y303288D01*
X149191D01*
Y303189D01*
X149290D01*
Y303090D01*
X149488D01*
Y302992D01*
X149686D01*
Y302893D01*
X149883D01*
Y302794D01*
X150081D01*
Y302695D01*
X150279D01*
Y302596D01*
X150477D01*
Y302497D01*
X150674D01*
Y302398D01*
X150872D01*
Y302299D01*
X151070D01*
Y302200D01*
X151268D01*
Y302101D01*
X151466D01*
Y302003D01*
X151663D01*
Y301904D01*
X151861D01*
Y301805D01*
X153839D01*
Y301706D01*
X156608D01*
Y301607D01*
X159179D01*
Y301508D01*
X163332D01*
Y301607D01*
X166101D01*
Y301706D01*
X168870D01*
Y301805D01*
X171639D01*
Y301904D01*
X174407D01*
Y302003D01*
X177176D01*
Y302101D01*
X180044D01*
Y302200D01*
X182813D01*
Y302299D01*
X185581D01*
Y302398D01*
X188449D01*
Y302497D01*
X196657D01*
Y305760D01*
X196756D01*
Y310012D01*
X196855D01*
Y310507D01*
X196954D01*
Y310804D01*
X197052D01*
Y311001D01*
X197151D01*
Y311298D01*
X197250D01*
Y311397D01*
X197349D01*
Y311595D01*
X197448D01*
Y311792D01*
X197547D01*
Y311891D01*
X197646D01*
Y311990D01*
X197745D01*
Y312089D01*
X197843D01*
Y312287D01*
X197942D01*
Y312386D01*
X198041D01*
Y312485D01*
X198239D01*
Y312584D01*
X198338D01*
Y312682D01*
X198437D01*
Y312781D01*
X198536D01*
Y312880D01*
X198733D01*
Y312979D01*
X198832D01*
Y313078D01*
X199030D01*
Y313177D01*
X199327D01*
Y313276D01*
X199524D01*
Y313375D01*
X199821D01*
Y313473D01*
X200513D01*
Y313572D01*
X201206D01*
Y313473D01*
X201799D01*
Y313375D01*
X202096D01*
Y313276D01*
X202392D01*
Y313177D01*
X202689D01*
Y313078D01*
X202887D01*
Y312979D01*
X203085D01*
Y312880D01*
X203183D01*
Y312781D01*
X203381D01*
Y312682D01*
X203480D01*
Y312584D01*
X203678D01*
Y312485D01*
X203777D01*
Y312386D01*
X203876D01*
Y312287D01*
X203974D01*
Y312188D01*
X204172D01*
Y312089D01*
X204271D01*
Y311990D01*
X204370D01*
Y311891D01*
X204469D01*
Y311792D01*
X204568D01*
Y311694D01*
X204963D01*
Y311792D01*
X205062D01*
Y316440D01*
X205161D01*
Y316539D01*
X205260D01*
Y316737D01*
X205359D01*
Y316836D01*
X205557D01*
Y316935D01*
X207435D01*
Y316836D01*
X207534D01*
Y316737D01*
X207633D01*
Y316638D01*
X207732D01*
Y316539D01*
X207831D01*
Y316440D01*
X207930D01*
Y304673D01*
X207831D01*
Y300519D01*
X207732D01*
Y300420D01*
X207633D01*
Y300223D01*
X207435D01*
Y300124D01*
X207337D01*
Y300025D01*
X205557D01*
Y300124D01*
X205359D01*
Y300223D01*
X205260D01*
Y300322D01*
X205161D01*
Y300420D01*
X205062D01*
Y300618D01*
X204963D01*
Y303585D01*
X205062D01*
Y307639D01*
X204963D01*
Y308232D01*
X204864D01*
Y308628D01*
X204765D01*
Y308826D01*
X204667D01*
Y309122D01*
X204568D01*
Y309320D01*
X204469D01*
Y309419D01*
X204370D01*
Y309617D01*
X204271D01*
Y309716D01*
X204172D01*
Y309914D01*
X204073D01*
Y310012D01*
X203974D01*
Y310111D01*
X203876D01*
Y310210D01*
X203777D01*
Y310309D01*
X203678D01*
Y310408D01*
X203579D01*
Y310507D01*
X203381D01*
Y310606D01*
X203282D01*
Y310705D01*
X203085D01*
Y310804D01*
X202887D01*
Y310902D01*
X202590D01*
Y311001D01*
X202194D01*
Y311100D01*
X201107D01*
Y311001D01*
X200810D01*
Y310902D01*
X200612D01*
Y310804D01*
X200513D01*
Y310705D01*
X200415D01*
Y310606D01*
X200217D01*
Y310507D01*
X200118D01*
Y310408D01*
X200019D01*
Y310210D01*
X199920D01*
Y310111D01*
X199821D01*
Y309914D01*
X199722D01*
Y309716D01*
X199623D01*
Y309518D01*
X199524D01*
Y309122D01*
X199426D01*
Y308628D01*
X199327D01*
Y300618D01*
X199228D01*
Y300519D01*
X199129D01*
Y300420D01*
X199030D01*
Y300322D01*
X198931D01*
Y300223D01*
X198733D01*
Y300124D01*
X198041D01*
Y300223D01*
X196162D01*
Y300322D01*
X194580D01*
Y300420D01*
X192701D01*
Y300519D01*
X190724D01*
Y300618D01*
X187559D01*
Y300717D01*
X183900D01*
Y300816D01*
X180340D01*
Y300915D01*
X176880D01*
Y301014D01*
X173319D01*
Y301113D01*
X169858D01*
Y301212D01*
X166299D01*
Y301310D01*
X162739D01*
Y301409D01*
X161552D01*
Y301310D01*
X160959D01*
Y301212D01*
X157498D01*
Y301113D01*
X154136D01*
Y301014D01*
X151663D01*
Y301113D01*
X151367D01*
Y301212D01*
X151169D01*
Y301310D01*
X150971D01*
Y301409D01*
X150773D01*
Y301508D01*
X150576D01*
Y301607D01*
X150378D01*
Y301706D01*
X150180D01*
Y301805D01*
X149982D01*
Y301904D01*
X149784D01*
Y302003D01*
X149587D01*
Y302101D01*
X149389D01*
Y302200D01*
X149191D01*
Y302299D01*
X148993D01*
Y302398D01*
X148796D01*
Y302497D01*
X148598D01*
Y302596D01*
X148400D01*
Y302695D01*
X148202D01*
Y302794D01*
X148005D01*
Y302893D01*
X147807D01*
Y302992D01*
X147609D01*
Y303090D01*
X147510D01*
Y303189D01*
X147312D01*
Y303288D01*
X147115D01*
Y303387D01*
X146917D01*
Y303486D01*
X146719D01*
Y303585D01*
X146521D01*
Y303684D01*
X146422D01*
Y303783D01*
X146225D01*
Y303881D01*
X146027D01*
Y303980D01*
X145829D01*
Y304079D01*
X145631D01*
Y304178D01*
X145532D01*
Y304277D01*
X145335D01*
Y304376D01*
X145137D01*
Y304475D01*
X144939D01*
Y304574D01*
X144840D01*
Y304673D01*
X144642D01*
Y304771D01*
X144544D01*
Y304870D01*
X144346D01*
Y304969D01*
X144148D01*
Y305068D01*
X144049D01*
Y305167D01*
X143851D01*
Y305266D01*
X143752D01*
Y305365D01*
X143555D01*
Y305464D01*
X143357D01*
Y305562D01*
X143258D01*
Y305661D01*
X143060D01*
Y305760D01*
X142961D01*
Y305859D01*
X142764D01*
Y305958D01*
X142665D01*
Y306057D01*
X142467D01*
Y306156D01*
X142368D01*
Y306255D01*
X142170D01*
Y306354D01*
X142071D01*
Y306453D01*
X141874D01*
Y306551D01*
X141775D01*
Y306650D01*
X141676D01*
Y306749D01*
X141478D01*
Y306848D01*
X141379D01*
Y306947D01*
X141181D01*
Y307046D01*
X141082D01*
Y307145D01*
X140984D01*
Y307244D01*
X140786D01*
Y307342D01*
X140687D01*
Y307441D01*
X140588D01*
Y307540D01*
X140489D01*
Y307639D01*
X140291D01*
Y307738D01*
X140192D01*
Y307837D01*
X140094D01*
Y307936D01*
X139995D01*
Y308035D01*
X139896D01*
Y308134D01*
X139698D01*
Y308232D01*
X139599D01*
Y308331D01*
X139500D01*
Y308430D01*
X139401D01*
Y308529D01*
X139303D01*
Y308628D01*
X139204D01*
Y308727D01*
X139105D01*
Y308826D01*
X139006D01*
Y308925D01*
X138907D01*
Y309024D01*
X138808D01*
Y309122D01*
X138709D01*
Y309221D01*
X138610D01*
Y309320D01*
X138511D01*
Y309419D01*
X138413D01*
Y309518D01*
X138314D01*
Y309716D01*
X138215D01*
Y309815D01*
X138116D01*
Y309914D01*
X138017D01*
Y310012D01*
X137918D01*
Y310210D01*
X137819D01*
Y310309D01*
X137720D01*
Y310507D01*
X137621D01*
Y310606D01*
X137522D01*
Y310804D01*
X137424D01*
Y311001D01*
X137325D01*
Y311199D01*
X137226D01*
Y311397D01*
X137127D01*
Y311595D01*
X137028D01*
Y311891D01*
X136929D01*
Y312880D01*
X137028D01*
Y313078D01*
X137127D01*
Y313276D01*
X137226D01*
Y313375D01*
X137325D01*
Y313473D01*
X137424D01*
Y313572D01*
X137522D01*
Y313671D01*
X137621D01*
Y313770D01*
X137819D01*
Y313869D01*
X138017D01*
Y313968D01*
X138116D01*
Y314067D01*
X138314D01*
Y314166D01*
X138511D01*
Y314265D01*
X138610D01*
Y314363D01*
X138808D01*
Y314462D01*
X139006D01*
Y314561D01*
X139204D01*
Y314660D01*
X139401D01*
Y314759D01*
X139500D01*
Y314858D01*
X139698D01*
Y314957D01*
X139896D01*
Y315056D01*
X140094D01*
Y315154D01*
X140291D01*
Y315253D01*
X140390D01*
Y315352D01*
X140588D01*
Y315451D01*
X140786D01*
Y315550D01*
X140984D01*
Y315649D01*
X141181D01*
Y315748D01*
X141379D01*
Y315847D01*
X141577D01*
Y315946D01*
X141775D01*
Y316045D01*
X141973D01*
Y316143D01*
X142170D01*
Y316242D01*
X142368D01*
Y316341D01*
X142566D01*
Y316440D01*
X142764D01*
Y316539D01*
X142961D01*
Y316638D01*
X143159D01*
Y316737D01*
X143357D01*
Y316836D01*
X143653D01*
Y316935D01*
X143851D01*
Y317033D01*
X144049D01*
Y317132D01*
X144247D01*
Y317231D01*
X144445D01*
Y317330D01*
X144642D01*
Y317429D01*
X144939D01*
Y317528D01*
X145137D01*
Y317627D01*
X145335D01*
Y317726D01*
X145532D01*
Y317824D01*
X145829D01*
Y317923D01*
X146027D01*
Y318022D01*
X146225D01*
Y318121D01*
X146422D01*
Y318220D01*
X146719D01*
Y318319D01*
X146917D01*
Y318418D01*
X147213D01*
Y318517D01*
X147411D01*
Y318616D01*
X147708D01*
Y318715D01*
X147906D01*
Y318813D01*
X148202D01*
Y318912D01*
X148400D01*
Y319011D01*
X148598D01*
Y319110D01*
X148895D01*
Y319209D01*
X149092D01*
Y319308D01*
X149389D01*
Y319407D01*
X149686D01*
Y319506D01*
X149883D01*
Y319604D01*
X150180D01*
Y319703D01*
X150477D01*
Y319802D01*
X150674D01*
Y319901D01*
X150971D01*
Y320000D01*
X151268D01*
Y320099D01*
X151466D01*
Y320198D01*
X151762D01*
Y320297D01*
X152059D01*
Y320396D01*
X152355D01*
Y320494D01*
X152553D01*
Y320593D01*
X152850D01*
Y320692D01*
X153147D01*
Y320791D01*
X153443D01*
Y320890D01*
X153740D01*
Y320989D01*
X154037D01*
Y321088D01*
X154333D01*
Y321187D01*
X154630D01*
Y321286D01*
X154927D01*
Y321384D01*
X155223D01*
Y321483D01*
X155520D01*
Y321582D01*
X155817D01*
Y321681D01*
X156113D01*
Y321780D01*
X156410D01*
Y321879D01*
X156706D01*
Y321978D01*
X157003D01*
Y322077D01*
X157399D01*
Y322175D01*
X157695D01*
Y322274D01*
X157992D01*
Y322373D01*
X158289D01*
Y322472D01*
X158684D01*
Y322571D01*
X159080D01*
Y322670D01*
X159376D01*
Y322769D01*
X159673D01*
Y322868D01*
X160069D01*
Y322967D01*
X160464D01*
Y323065D01*
X160761D01*
Y323164D01*
X161156D01*
Y323263D01*
X161453D01*
Y323362D01*
X161750D01*
Y323461D01*
X162145D01*
Y323560D01*
X162541D01*
Y323659D01*
X162936D01*
Y323758D01*
X163332D01*
Y323857D01*
X163727D01*
Y323955D01*
X164123D01*
Y324054D01*
X164519D01*
Y324153D01*
X164914D01*
Y324252D01*
X165310D01*
Y324351D01*
X165705D01*
Y324450D01*
X166200D01*
Y324549D01*
X166595D01*
Y324648D01*
X166892D01*
Y324747D01*
X167287D01*
Y324846D01*
X167782D01*
Y324944D01*
X168276D01*
Y325043D01*
X168771D01*
Y325142D01*
X169166D01*
Y325241D01*
X169661D01*
Y325340D01*
X170155D01*
Y325439D01*
X170650D01*
Y325538D01*
X171144D01*
Y325636D01*
X171540D01*
Y325735D01*
X172034D01*
Y325834D01*
X172528D01*
Y325933D01*
X173122D01*
Y326032D01*
X173616D01*
Y326131D01*
X174111D01*
Y326230D01*
X174803D01*
Y326329D01*
X175396D01*
Y326428D01*
X175989D01*
Y326527D01*
X176484D01*
Y326625D01*
X177077D01*
Y326724D01*
X177670D01*
Y326823D01*
X178264D01*
Y326922D01*
X178857D01*
Y327021D01*
X179450D01*
Y327120D01*
X180242D01*
Y327219D01*
X180934D01*
Y327318D01*
X181725D01*
Y327416D01*
X182516D01*
Y327515D01*
X183208D01*
Y327614D01*
X183900D01*
Y327713D01*
X184692D01*
Y327812D01*
X185483D01*
Y327911D01*
X186373D01*
Y328010D01*
X187361D01*
Y328109D01*
X188449D01*
Y328208D01*
X189537D01*
Y328307D01*
X190724D01*
Y328405D01*
X191614D01*
Y328504D01*
X192701D01*
Y328603D01*
X194284D01*
Y328702D01*
X196261D01*
Y328801D01*
X198041D01*
Y328900D01*
X199426D01*
Y328999D01*
X201304D01*
Y328801D01*
X201403D01*
Y328603D01*
Y328504D01*
X201502D01*
Y328208D01*
X201601D01*
Y328010D01*
X201700D01*
Y327713D01*
X201799D01*
Y327515D01*
X201898D01*
Y327219D01*
X201997D01*
Y326922D01*
X202096D01*
Y326724D01*
X202194D01*
Y326625D01*
X202293D01*
Y326527D01*
X202392D01*
Y326428D01*
X202590D01*
Y326329D01*
X203480D01*
Y326428D01*
X204172D01*
Y326527D01*
X204864D01*
Y326625D01*
X205557D01*
Y326724D01*
X206249D01*
Y326823D01*
X207040D01*
Y326922D01*
X207732D01*
Y327021D01*
X208424D01*
Y327120D01*
X209116D01*
Y327219D01*
X209809D01*
Y327318D01*
X210501D01*
Y327416D01*
X211193D01*
Y327515D01*
X211885D01*
Y327614D01*
X212578D01*
Y327713D01*
X213270D01*
Y327812D01*
X213863D01*
Y327911D01*
X214555D01*
Y328010D01*
X215149D01*
Y328109D01*
X215841D01*
Y328208D01*
X216533D01*
Y328307D01*
X217126D01*
Y328405D01*
X217819D01*
Y328504D01*
X218313D01*
Y328603D01*
X219005D01*
Y328702D01*
X219697D01*
Y328801D01*
X220291D01*
Y328900D01*
X220884D01*
Y328999D01*
X221378D01*
Y329098D01*
X222071D01*
Y329197D01*
X222664D01*
Y329295D01*
X223257D01*
Y329394D01*
X223752D01*
Y329493D01*
X224345D01*
Y329592D01*
X224938D01*
Y329691D01*
X225532D01*
Y329790D01*
X226026D01*
Y329889D01*
X226521D01*
Y329988D01*
X227114D01*
Y330087D01*
X227707D01*
Y330185D01*
X228202D01*
Y330284D01*
X228696D01*
Y330383D01*
X229191D01*
Y330482D01*
X229784D01*
Y330581D01*
X230278D01*
Y330680D01*
X230773D01*
Y330779D01*
X231267D01*
Y330877D01*
X231663D01*
Y330976D01*
X232157D01*
Y331075D01*
X232652D01*
Y331174D01*
X233146D01*
Y331273D01*
X233542D01*
Y331372D01*
X234036D01*
Y331471D01*
X234531D01*
Y331570D01*
X234926D01*
Y331669D01*
X235322D01*
Y331768D01*
X235618D01*
Y331866D01*
X236014D01*
Y331965D01*
X236409D01*
Y332064D01*
X236706D01*
Y332163D01*
X237003D01*
Y332262D01*
X237200D01*
Y332361D01*
X237497D01*
Y332460D01*
X237794D01*
Y332559D01*
X237991D01*
Y332658D01*
X238288D01*
Y332756D01*
X238486D01*
Y332855D01*
X238684D01*
Y332954D01*
X238881D01*
Y333053D01*
X239079D01*
Y333152D01*
X239178D01*
Y333251D01*
X239376D01*
Y333350D01*
X239574D01*
Y333449D01*
X239673D01*
Y333548D01*
X239771D01*
Y333646D01*
X239969D01*
Y333745D01*
X240068D01*
Y333844D01*
X240167D01*
Y333943D01*
X240266D01*
Y334042D01*
X240365D01*
Y334141D01*
X240464D01*
Y334339D01*
X240562D01*
Y334536D01*
X240661D01*
Y335130D01*
X240562D01*
Y335426D01*
X240464D01*
Y335624D01*
X240365D01*
Y335723D01*
X240266D01*
Y335921D01*
X240167D01*
Y336020D01*
X240068D01*
Y336217D01*
X239969D01*
Y336316D01*
X239870D01*
Y336415D01*
X239771D01*
Y336613D01*
X239673D01*
Y336712D01*
X239574D01*
Y336811D01*
X239475D01*
Y337009D01*
X239376D01*
Y337107D01*
X239277D01*
Y337305D01*
X239178D01*
Y337404D01*
X239079D01*
Y337503D01*
X238980D01*
Y337701D01*
X238881D01*
Y337800D01*
X238783D01*
Y337898D01*
X238684D01*
Y338096D01*
X238585D01*
Y338195D01*
X238486D01*
Y338294D01*
X238387D01*
Y338492D01*
X238288D01*
Y338591D01*
X238189D01*
Y338690D01*
X238090D01*
Y338887D01*
X237991D01*
Y338986D01*
X237893D01*
Y339184D01*
X237794D01*
Y339283D01*
X237695D01*
Y339382D01*
X237596D01*
Y339580D01*
X237497D01*
Y339678D01*
X237398D01*
Y339876D01*
X237299D01*
Y339975D01*
X237200D01*
Y340074D01*
X237101D01*
Y340272D01*
X237003D01*
Y340371D01*
X236904D01*
Y340569D01*
X236805D01*
Y340667D01*
X236706D01*
Y340766D01*
X236607D01*
Y340964D01*
X236508D01*
Y341063D01*
X236409D01*
Y341261D01*
X236310D01*
Y341360D01*
X236211D01*
Y341458D01*
X236113D01*
Y341656D01*
X236014D01*
Y341755D01*
X235915D01*
Y341953D01*
X235816D01*
Y342052D01*
X235717D01*
Y342249D01*
X235618D01*
Y342348D01*
X235519D01*
Y342447D01*
X235420D01*
Y342645D01*
X235322D01*
Y342744D01*
X235223D01*
Y342942D01*
X235124D01*
Y343041D01*
X235025D01*
Y343139D01*
X234926D01*
Y343337D01*
X234827D01*
Y343436D01*
X234728D01*
Y343634D01*
X234629D01*
Y343733D01*
X234531D01*
Y343832D01*
X234432D01*
Y344128D01*
X234629D01*
Y344227D01*
X235025D01*
Y344326D01*
X235519D01*
Y344425D01*
X235915D01*
Y344524D01*
X236508D01*
Y344623D01*
X237200D01*
Y344722D01*
X242540D01*
Y344623D01*
D02*
G37*
G36*
X173715Y311001D02*
X173814D01*
Y310902D01*
X173913D01*
Y303684D01*
X173814D01*
Y303486D01*
X172924D01*
Y303684D01*
X172825D01*
Y306156D01*
Y306255D01*
Y308925D01*
X172726D01*
Y308727D01*
X172627D01*
Y308529D01*
X172528D01*
Y308331D01*
X172430D01*
Y308232D01*
X172331D01*
Y308035D01*
X172232D01*
Y307837D01*
X172133D01*
Y307639D01*
X172034D01*
Y307441D01*
X171935D01*
Y307342D01*
X171836D01*
Y307145D01*
X171737D01*
Y306947D01*
X171639D01*
Y306848D01*
X171540D01*
Y306650D01*
X171441D01*
Y306453D01*
X171342D01*
Y306255D01*
X171243D01*
Y306156D01*
X171144D01*
Y305958D01*
X171045D01*
Y305760D01*
X170946D01*
Y305562D01*
X170847D01*
Y305464D01*
X170749D01*
Y305266D01*
X170650D01*
Y305068D01*
X170551D01*
Y304870D01*
X170452D01*
Y304771D01*
X170353D01*
Y304574D01*
X170254D01*
Y304376D01*
X170155D01*
Y304178D01*
X170056D01*
Y304079D01*
X169957D01*
Y303881D01*
X169858D01*
Y303684D01*
X169760D01*
Y303585D01*
X169661D01*
Y303486D01*
X168870D01*
Y303684D01*
X168771D01*
Y310902D01*
X168870D01*
Y311001D01*
X168969D01*
Y311100D01*
X169661D01*
Y311001D01*
X169760D01*
Y310804D01*
X169858D01*
Y305859D01*
X169760D01*
Y305562D01*
X169858D01*
Y305661D01*
X169957D01*
Y305859D01*
X170056D01*
Y306057D01*
X170155D01*
Y306255D01*
X170254D01*
Y306354D01*
X170353D01*
Y306551D01*
X170452D01*
Y306749D01*
X170551D01*
Y306947D01*
X170650D01*
Y307046D01*
X170749D01*
Y307244D01*
X170847D01*
Y307441D01*
X170946D01*
Y307639D01*
X171045D01*
Y307738D01*
X171144D01*
Y307936D01*
X171243D01*
Y308134D01*
X171342D01*
Y308331D01*
X171441D01*
Y308430D01*
X171540D01*
Y308628D01*
X171639D01*
Y308826D01*
X171737D01*
Y309024D01*
X171836D01*
Y309122D01*
X171935D01*
Y309320D01*
X172034D01*
Y309518D01*
X172133D01*
Y309716D01*
X172232D01*
Y309815D01*
X172331D01*
Y310012D01*
X172430D01*
Y310210D01*
X172528D01*
Y310408D01*
X172627D01*
Y310507D01*
X172726D01*
Y310705D01*
X172825D01*
Y310902D01*
X172924D01*
Y311001D01*
X173023D01*
Y311100D01*
X173715D01*
Y311001D01*
D02*
G37*
G36*
X181725D02*
X182022D01*
Y310902D01*
X182219D01*
Y310804D01*
X182318D01*
Y310705D01*
X182516D01*
Y310606D01*
X182615D01*
Y310507D01*
X182714D01*
Y310309D01*
X182813D01*
Y310210D01*
X182911D01*
Y310012D01*
X183010D01*
Y309320D01*
X183109D01*
Y305266D01*
X183010D01*
Y304574D01*
X182911D01*
Y304376D01*
X182813D01*
Y304178D01*
X182714D01*
Y304079D01*
X182615D01*
Y303980D01*
X182516D01*
Y303881D01*
X182417D01*
Y303783D01*
X182219D01*
Y303684D01*
X182120D01*
Y303585D01*
X181824D01*
Y303486D01*
X179352D01*
Y303585D01*
X179055D01*
Y303684D01*
X178857D01*
Y303783D01*
X178758D01*
Y303881D01*
X178561D01*
Y303980D01*
X178462D01*
Y304178D01*
X178363D01*
Y304277D01*
X178264D01*
Y304475D01*
X178165D01*
Y304771D01*
X178066D01*
Y305958D01*
X178165D01*
Y306057D01*
X179055D01*
Y305859D01*
X179154D01*
Y304771D01*
X179253D01*
Y304574D01*
X179450D01*
Y304475D01*
X179648D01*
Y304376D01*
X181428D01*
Y304475D01*
X181725D01*
Y304574D01*
X181824D01*
Y304673D01*
X181923D01*
Y304870D01*
X182022D01*
Y309716D01*
X181923D01*
Y309914D01*
X181824D01*
Y310012D01*
X181626D01*
Y310111D01*
X179450D01*
Y310012D01*
X179352D01*
Y309914D01*
X179253D01*
Y309815D01*
X179154D01*
Y308727D01*
X179055D01*
Y308529D01*
X178956D01*
Y308430D01*
X178264D01*
Y308529D01*
X178165D01*
Y308628D01*
X178066D01*
Y309716D01*
X178165D01*
Y310111D01*
X178264D01*
Y310210D01*
X178363D01*
Y310408D01*
X178462D01*
Y310507D01*
X178561D01*
Y310606D01*
X178659D01*
Y310705D01*
X178758D01*
Y310804D01*
X178956D01*
Y310902D01*
X179154D01*
Y311001D01*
X179450D01*
Y311100D01*
X181725D01*
Y311001D01*
D02*
G37*
G36*
X165903D02*
X166200D01*
Y310902D01*
X166496D01*
Y310804D01*
X166595D01*
Y310705D01*
X166793D01*
Y310606D01*
X166892D01*
Y310408D01*
X166991D01*
Y310309D01*
X167090D01*
Y310111D01*
X167188D01*
Y309914D01*
X167287D01*
Y304673D01*
X167188D01*
Y304376D01*
X167090D01*
Y304277D01*
X166991D01*
Y304079D01*
X166892D01*
Y303980D01*
X166793D01*
Y303881D01*
X166694D01*
Y303783D01*
X166496D01*
Y303684D01*
X166299D01*
Y303585D01*
X166101D01*
Y303486D01*
X163727D01*
Y303585D01*
X163431D01*
Y303684D01*
X163233D01*
Y303783D01*
X163134D01*
Y303881D01*
X163035D01*
Y303980D01*
X162936D01*
Y304079D01*
X162838D01*
Y304178D01*
X162739D01*
Y304277D01*
X162640D01*
Y304574D01*
X162541D01*
Y304969D01*
X162442D01*
Y307342D01*
X162541D01*
Y307441D01*
X162640D01*
Y307540D01*
X164815D01*
Y307441D01*
X164914D01*
Y306749D01*
X164815D01*
Y306650D01*
X163530D01*
Y304771D01*
X163629D01*
Y304673D01*
X163727D01*
Y304574D01*
X163826D01*
Y304475D01*
X164123D01*
Y304376D01*
X165705D01*
Y304475D01*
X166002D01*
Y304574D01*
X166101D01*
Y304673D01*
X166200D01*
Y304969D01*
X166299D01*
Y309617D01*
X166200D01*
Y309815D01*
X166101D01*
Y310012D01*
X165903D01*
Y310111D01*
X163925D01*
Y310012D01*
X163727D01*
Y309914D01*
X163629D01*
Y309716D01*
X163530D01*
Y308727D01*
X163431D01*
Y308628D01*
X163332D01*
Y308529D01*
X162640D01*
Y308628D01*
X162541D01*
Y308727D01*
X162442D01*
Y309617D01*
X162541D01*
Y310012D01*
X162640D01*
Y310210D01*
X162739D01*
Y310408D01*
X162838D01*
Y310507D01*
X162936D01*
Y310606D01*
X163035D01*
Y310705D01*
X163134D01*
Y310804D01*
X163332D01*
Y310902D01*
X163530D01*
Y311001D01*
X163826D01*
Y311100D01*
X165903D01*
Y311001D01*
D02*
G37*
G36*
X195272D02*
X195371D01*
Y303684D01*
X195272D01*
Y303486D01*
X194481D01*
Y303585D01*
X194382D01*
Y305068D01*
Y305167D01*
Y306453D01*
X192899D01*
Y306354D01*
X192800D01*
Y306156D01*
X192701D01*
Y305958D01*
X192603D01*
Y305760D01*
X192504D01*
Y305562D01*
X192405D01*
Y305266D01*
X192306D01*
Y305068D01*
X192207D01*
Y304870D01*
X192108D01*
Y304673D01*
X192009D01*
Y304475D01*
X191910D01*
Y304277D01*
X191811D01*
Y304079D01*
X191712D01*
Y303881D01*
X191614D01*
Y303684D01*
X191515D01*
Y303585D01*
X191416D01*
Y303486D01*
X190526D01*
Y303881D01*
X190625D01*
Y304079D01*
X190724D01*
Y304277D01*
X190823D01*
Y304475D01*
X190921D01*
Y304673D01*
X191020D01*
Y304870D01*
X191119D01*
Y305068D01*
X191218D01*
Y305266D01*
X191317D01*
Y305562D01*
X191416D01*
Y305760D01*
X191515D01*
Y305958D01*
X191614D01*
Y306156D01*
X191712D01*
Y306354D01*
X191811D01*
Y306551D01*
X191712D01*
Y306650D01*
X191515D01*
Y306749D01*
X191317D01*
Y306848D01*
X191218D01*
Y306947D01*
X191119D01*
Y307046D01*
X191020D01*
Y307145D01*
X190921D01*
Y307342D01*
X190823D01*
Y307639D01*
X190724D01*
Y309914D01*
X190823D01*
Y310111D01*
X190921D01*
Y310309D01*
X191020D01*
Y310408D01*
X191119D01*
Y310606D01*
X191218D01*
Y310705D01*
X191416D01*
Y310804D01*
X191515D01*
Y310902D01*
X191811D01*
Y311001D01*
X192108D01*
Y311100D01*
X195272D01*
Y311001D01*
D02*
G37*
G36*
X187361D02*
X187559D01*
Y310804D01*
X187658D01*
Y310507D01*
X187757D01*
Y310111D01*
X187856D01*
Y309815D01*
X187955D01*
Y309518D01*
X188054D01*
Y309221D01*
X188153D01*
Y308826D01*
X188251D01*
Y308529D01*
X188350D01*
Y308232D01*
X188449D01*
Y307837D01*
X188548D01*
Y307540D01*
X188647D01*
Y307244D01*
X188746D01*
Y306848D01*
X188845D01*
Y306551D01*
X188944D01*
Y306255D01*
X189042D01*
Y305958D01*
X189141D01*
Y305562D01*
X189240D01*
Y305266D01*
X189339D01*
Y304969D01*
X189438D01*
Y304673D01*
X189537D01*
Y304277D01*
X189636D01*
Y303980D01*
X189735D01*
Y303486D01*
X188845D01*
Y303585D01*
X188746D01*
Y303783D01*
X188647D01*
Y304178D01*
X188548D01*
Y304475D01*
X188449D01*
Y304771D01*
X188350D01*
Y304870D01*
Y304969D01*
Y305068D01*
X188251D01*
Y305266D01*
X188153D01*
Y305365D01*
X185581D01*
Y305266D01*
X185483D01*
Y304969D01*
X185384D01*
Y304673D01*
X185285D01*
Y304376D01*
X185186D01*
Y304079D01*
X185087D01*
Y303783D01*
X184988D01*
Y303585D01*
X184889D01*
Y303486D01*
X184098D01*
Y303585D01*
X183999D01*
Y303881D01*
X184098D01*
Y304178D01*
X184197D01*
Y304574D01*
X184296D01*
Y304870D01*
X184395D01*
Y305167D01*
X184494D01*
Y305464D01*
X184593D01*
Y305859D01*
X184692D01*
Y306156D01*
X184790D01*
Y306551D01*
X184889D01*
Y306848D01*
X184988D01*
Y307145D01*
X185087D01*
Y307540D01*
X185186D01*
Y307837D01*
X185285D01*
Y308134D01*
X185384D01*
Y308430D01*
X185483D01*
Y308727D01*
X185581D01*
Y309122D01*
X185680D01*
Y309419D01*
X185779D01*
Y309815D01*
X185878D01*
Y310111D01*
X185977D01*
Y310408D01*
X186076D01*
Y310705D01*
X186175D01*
Y310902D01*
X186274D01*
Y311001D01*
X186373D01*
Y311100D01*
X187361D01*
Y311001D01*
D02*
G37*
G36*
X176484D02*
X176583D01*
Y303585D01*
X176484D01*
Y303486D01*
X175693D01*
Y303585D01*
X175594D01*
Y308925D01*
Y309024D01*
Y311001D01*
X175792D01*
Y311100D01*
X176484D01*
Y311001D01*
D02*
G37*
G36*
X267361Y325933D02*
X268350D01*
Y325834D01*
X268943D01*
Y325735D01*
X269438D01*
Y325636D01*
X269833D01*
Y325538D01*
X270229D01*
Y325439D01*
X270624D01*
Y325340D01*
X270921D01*
Y325241D01*
X271217D01*
Y325142D01*
X271415D01*
Y325043D01*
X271712D01*
Y324944D01*
X271910D01*
Y324846D01*
X272206D01*
Y324747D01*
X272404D01*
Y324648D01*
X272602D01*
Y324549D01*
X272800D01*
Y324450D01*
X272997D01*
Y324351D01*
X273195D01*
Y324252D01*
X273393D01*
Y324153D01*
X273492D01*
Y324054D01*
X273690D01*
Y323955D01*
X273887D01*
Y323857D01*
X273986D01*
Y323758D01*
X274184D01*
Y323659D01*
X274283D01*
Y323560D01*
X274481D01*
Y323461D01*
X274580D01*
Y323362D01*
X274777D01*
Y323263D01*
X274876D01*
Y323164D01*
X274975D01*
Y323065D01*
X275173D01*
Y322967D01*
X275272D01*
Y322868D01*
X275371D01*
Y322769D01*
X275469D01*
Y322670D01*
X275568D01*
Y322571D01*
X275766D01*
Y322472D01*
X275865D01*
Y322373D01*
X275964D01*
Y322274D01*
X276063D01*
Y322175D01*
X276162D01*
Y322077D01*
X276261D01*
Y321978D01*
X276360D01*
Y321879D01*
X276458D01*
Y321780D01*
X276557D01*
Y321681D01*
X276656D01*
Y321582D01*
X276755D01*
Y321483D01*
X276854D01*
Y321384D01*
X276953D01*
Y321286D01*
X277052D01*
Y321187D01*
X277151D01*
Y320989D01*
X277250D01*
Y320890D01*
X277348D01*
Y320791D01*
X277447D01*
Y320692D01*
X277546D01*
Y320494D01*
X277645D01*
Y320396D01*
X277744D01*
Y320297D01*
X277843D01*
Y320198D01*
X277942D01*
Y320000D01*
X278041D01*
Y319901D01*
X278139D01*
Y319703D01*
X278238D01*
Y319604D01*
X278337D01*
Y319407D01*
X278436D01*
Y319308D01*
X278535D01*
Y319110D01*
X278634D01*
Y318912D01*
X278733D01*
Y318715D01*
X278832D01*
Y318616D01*
X278931D01*
Y318418D01*
X279030D01*
Y318220D01*
X279128D01*
Y318022D01*
X279227D01*
Y317824D01*
X279326D01*
Y317528D01*
X279425D01*
Y317330D01*
X279524D01*
Y317033D01*
X279623D01*
Y316836D01*
X279722D01*
Y316539D01*
X279820D01*
Y316242D01*
X279919D01*
Y315946D01*
X280018D01*
Y315550D01*
X280117D01*
Y315253D01*
X280216D01*
Y314759D01*
X280315D01*
Y314265D01*
X280414D01*
Y313572D01*
X280513D01*
Y312287D01*
X280612D01*
Y311397D01*
X280711D01*
Y311199D01*
X280809D01*
Y311100D01*
X280908D01*
Y310902D01*
X281007D01*
Y310804D01*
X281205D01*
Y310705D01*
X281403D01*
Y310606D01*
X281699D01*
Y310507D01*
X281897D01*
Y310408D01*
X282194D01*
Y310309D01*
X282589D01*
Y310210D01*
X283183D01*
Y310309D01*
X283381D01*
Y310408D01*
X283578D01*
Y310507D01*
X283677D01*
Y310606D01*
X283776D01*
Y310705D01*
X283974D01*
Y310804D01*
X284073D01*
Y310902D01*
X284172D01*
Y311001D01*
X284270D01*
Y311100D01*
X284369D01*
Y311199D01*
X284468D01*
Y311298D01*
X284567D01*
Y311397D01*
X284765D01*
Y311496D01*
X284864D01*
Y311595D01*
X285062D01*
Y311694D01*
X285161D01*
Y311792D01*
X285358D01*
Y311891D01*
X285556D01*
Y311990D01*
X285853D01*
Y312089D01*
X286149D01*
Y312188D01*
X286644D01*
Y312287D01*
X288621D01*
Y312188D01*
X289314D01*
Y312089D01*
X289808D01*
Y311990D01*
X290006D01*
Y311891D01*
X290105D01*
Y311792D01*
X290204D01*
Y311694D01*
X290303D01*
Y311595D01*
X290401D01*
Y310902D01*
X290303D01*
Y310507D01*
X290204D01*
Y310210D01*
X290105D01*
Y309518D01*
X290204D01*
Y309320D01*
X290303D01*
Y309221D01*
X290500D01*
Y309122D01*
X290698D01*
Y309024D01*
X290896D01*
Y308925D01*
X291192D01*
Y308826D01*
X291489D01*
Y308727D01*
X291786D01*
Y308628D01*
X292083D01*
Y308529D01*
X292379D01*
Y308430D01*
X292676D01*
Y308331D01*
X292973D01*
Y308232D01*
X293269D01*
Y308134D01*
X293566D01*
Y308035D01*
X293961D01*
Y307936D01*
X294258D01*
Y307837D01*
X294555D01*
Y307738D01*
X294851D01*
Y307639D01*
X295049D01*
Y307540D01*
X295346D01*
Y307441D01*
X295445D01*
Y307342D01*
X295642D01*
Y307244D01*
X295741D01*
Y307145D01*
X295840D01*
Y306947D01*
X295939D01*
Y306848D01*
X296038D01*
Y306453D01*
X295939D01*
Y306255D01*
X295840D01*
Y306156D01*
X295741D01*
Y306057D01*
X295544D01*
Y305958D01*
X295445D01*
Y305859D01*
X294654D01*
Y305958D01*
X294357D01*
Y306057D01*
X294060D01*
Y306156D01*
X293764D01*
Y306255D01*
X293467D01*
Y306354D01*
X293170D01*
Y306453D01*
X292874D01*
Y306551D01*
X292577D01*
Y306650D01*
X292280D01*
Y306749D01*
X291984D01*
Y306848D01*
X291687D01*
Y306947D01*
X291489D01*
Y307046D01*
X291192D01*
Y307145D01*
X290797D01*
Y307244D01*
X290500D01*
Y307342D01*
X290204D01*
Y307441D01*
X289512D01*
Y307342D01*
X289314D01*
Y307244D01*
X289215D01*
Y307145D01*
X289116D01*
Y306947D01*
X289017D01*
Y306749D01*
X288918D01*
Y306453D01*
X288819D01*
Y306156D01*
X288720D01*
Y305760D01*
X288621D01*
Y305464D01*
X288523D01*
Y305167D01*
X288424D01*
Y304771D01*
X288325D01*
Y304079D01*
X288424D01*
Y303881D01*
X288523D01*
Y303783D01*
X288621D01*
Y303684D01*
X288819D01*
Y303585D01*
X289116D01*
Y303486D01*
X289413D01*
Y303387D01*
X289709D01*
Y303288D01*
X290105D01*
Y303189D01*
X290401D01*
Y303090D01*
X290698D01*
Y302992D01*
X290995D01*
Y302893D01*
X291291D01*
Y302794D01*
X291588D01*
Y302695D01*
X291885D01*
Y302596D01*
X292181D01*
Y302497D01*
X292478D01*
Y302398D01*
X292775D01*
Y302299D01*
X293071D01*
Y302200D01*
X293368D01*
Y302101D01*
X293566D01*
Y302003D01*
X293764D01*
Y301904D01*
X293862D01*
Y301805D01*
X293961D01*
Y301706D01*
X294060D01*
Y301607D01*
X294159D01*
Y301409D01*
X294258D01*
Y300915D01*
X294159D01*
Y300816D01*
X294060D01*
Y300717D01*
X293961D01*
Y300618D01*
X293862D01*
Y300519D01*
X293665D01*
Y300420D01*
X293170D01*
Y300519D01*
X292676D01*
Y300618D01*
X292379D01*
Y300717D01*
X292083D01*
Y300816D01*
X291786D01*
Y300915D01*
X291489D01*
Y301014D01*
X291094D01*
Y301113D01*
X290797D01*
Y301212D01*
X290500D01*
Y301310D01*
X290204D01*
Y301409D01*
X289907D01*
Y301508D01*
X289610D01*
Y301607D01*
X289314D01*
Y301706D01*
X289017D01*
Y301805D01*
X288720D01*
Y301904D01*
X288424D01*
Y302003D01*
X287731D01*
Y301904D01*
X287633D01*
Y301805D01*
X287435D01*
Y301607D01*
X287336D01*
Y301508D01*
X287237D01*
Y301212D01*
X287138D01*
Y300915D01*
X287039D01*
Y300717D01*
X286940D01*
Y300618D01*
X286842D01*
Y300519D01*
X286743D01*
Y300420D01*
X286644D01*
Y300322D01*
X286545D01*
Y300223D01*
X285853D01*
Y300322D01*
X285655D01*
Y300420D01*
X285457D01*
Y300519D01*
X285259D01*
Y300618D01*
X285062D01*
Y300717D01*
X284864D01*
Y300816D01*
X284666D01*
Y300915D01*
X284567D01*
Y301014D01*
X284369D01*
Y301113D01*
X284172D01*
Y301212D01*
X284073D01*
Y301310D01*
X283974D01*
Y301409D01*
X283776D01*
Y301508D01*
X283677D01*
Y301607D01*
X283578D01*
Y301706D01*
X283479D01*
Y301805D01*
X283381D01*
Y301904D01*
X283282D01*
Y302003D01*
X283183D01*
Y302101D01*
X283084D01*
Y302200D01*
X282985D01*
Y302299D01*
X282886D01*
Y302497D01*
X282787D01*
Y302596D01*
X282688D01*
Y302695D01*
X282589D01*
Y302893D01*
X282491D01*
Y303090D01*
X282392D01*
Y303288D01*
X282293D01*
Y303486D01*
X282194D01*
Y303783D01*
X282095D01*
Y304277D01*
X281996D01*
Y305068D01*
X281897D01*
Y305365D01*
X281798D01*
Y305464D01*
X281699D01*
Y305661D01*
X281600D01*
Y305760D01*
X281403D01*
Y305859D01*
X281205D01*
Y305958D01*
X281007D01*
Y306057D01*
X280711D01*
Y306156D01*
X280315D01*
Y306255D01*
X279722D01*
Y306156D01*
X279524D01*
Y306057D01*
X279425D01*
Y305958D01*
X279326D01*
Y305859D01*
X279227D01*
Y305760D01*
X279128D01*
Y305562D01*
X279030D01*
Y305365D01*
X278931D01*
Y305167D01*
X278832D01*
Y305068D01*
X278733D01*
Y304870D01*
X278634D01*
Y304771D01*
X278535D01*
Y304574D01*
X278436D01*
Y304376D01*
X278337D01*
Y304277D01*
X278238D01*
Y304178D01*
X278139D01*
Y303980D01*
X278041D01*
Y303881D01*
X277942D01*
Y303684D01*
X277843D01*
Y303585D01*
X277744D01*
Y303486D01*
X277645D01*
Y303288D01*
X277546D01*
Y303189D01*
X277447D01*
Y303090D01*
X277348D01*
Y302992D01*
X277250D01*
Y302893D01*
X277151D01*
Y302695D01*
X277052D01*
Y302596D01*
X276953D01*
Y302497D01*
X276854D01*
Y302398D01*
X276755D01*
Y302299D01*
X276656D01*
Y302200D01*
X276557D01*
Y302101D01*
X276458D01*
Y302003D01*
X276360D01*
Y301904D01*
X276261D01*
Y301805D01*
X276162D01*
Y301706D01*
X276063D01*
Y301607D01*
X275964D01*
Y301508D01*
X275865D01*
Y301409D01*
X275766D01*
Y301310D01*
X275568D01*
Y301212D01*
X275469D01*
Y301113D01*
X275371D01*
Y301014D01*
X275272D01*
Y300915D01*
X275173D01*
Y300816D01*
X274975D01*
Y300717D01*
X274876D01*
Y300618D01*
X274777D01*
Y300519D01*
X274580D01*
Y300420D01*
X274481D01*
Y300322D01*
X274283D01*
Y300223D01*
X274184D01*
Y300124D01*
X273986D01*
Y300025D01*
X273788D01*
Y299926D01*
X273690D01*
Y299827D01*
X273492D01*
Y299728D01*
X273294D01*
Y299629D01*
X273096D01*
Y299531D01*
X272899D01*
Y299432D01*
X272701D01*
Y299333D01*
X272503D01*
Y299234D01*
X272305D01*
Y299135D01*
X272107D01*
Y299036D01*
X271910D01*
Y298937D01*
X271613D01*
Y298838D01*
X271415D01*
Y298739D01*
X271119D01*
Y298640D01*
X270822D01*
Y298542D01*
X270525D01*
Y298443D01*
X270229D01*
Y298344D01*
X269932D01*
Y298245D01*
X269536D01*
Y298146D01*
X269042D01*
Y298047D01*
X268547D01*
Y297948D01*
X267954D01*
Y297849D01*
X267262D01*
Y297750D01*
X264988D01*
Y297849D01*
X264098D01*
Y297948D01*
X263603D01*
Y298047D01*
X263109D01*
Y298146D01*
X262614D01*
Y298245D01*
X262219D01*
Y298344D01*
X261823D01*
Y298443D01*
X261527D01*
Y298542D01*
X261230D01*
Y298640D01*
X260933D01*
Y298739D01*
X260735D01*
Y298838D01*
X260439D01*
Y298937D01*
X260241D01*
Y299036D01*
X260043D01*
Y299135D01*
X259845D01*
Y299234D01*
X259648D01*
Y299333D01*
X259450D01*
Y299432D01*
X259252D01*
Y299531D01*
X259054D01*
Y299629D01*
X258857D01*
Y299728D01*
X258758D01*
Y299827D01*
X258560D01*
Y299926D01*
X258362D01*
Y300025D01*
X258263D01*
Y300124D01*
X258065D01*
Y300223D01*
X257967D01*
Y300322D01*
X257769D01*
Y300420D01*
X257670D01*
Y300519D01*
X257472D01*
Y300618D01*
X257373D01*
Y300717D01*
X257274D01*
Y300816D01*
X257176D01*
Y300915D01*
X256978D01*
Y301014D01*
X256879D01*
Y301113D01*
X256780D01*
Y301212D01*
X256681D01*
Y301310D01*
X256483D01*
Y301409D01*
X256384D01*
Y301508D01*
X256285D01*
Y301607D01*
X256187D01*
Y301706D01*
X256088D01*
Y301805D01*
X255989D01*
Y301904D01*
X255890D01*
Y302003D01*
X255791D01*
Y302101D01*
X255692D01*
Y302200D01*
X255593D01*
Y302299D01*
X255494D01*
Y302398D01*
X255396D01*
Y302497D01*
X255297D01*
Y302596D01*
X255198D01*
Y302695D01*
X255099D01*
Y302794D01*
X255000D01*
Y302992D01*
X254901D01*
Y303090D01*
X254802D01*
Y303189D01*
X254703D01*
Y303288D01*
X254604D01*
Y303486D01*
X254506D01*
Y303585D01*
X254407D01*
Y303684D01*
X254308D01*
Y303783D01*
X254209D01*
Y303980D01*
X254110D01*
Y304079D01*
X254011D01*
Y304277D01*
X253912D01*
Y304376D01*
X253813D01*
Y304574D01*
X253715D01*
Y304771D01*
X253616D01*
Y304870D01*
X253517D01*
Y305068D01*
X253418D01*
Y305266D01*
X253319D01*
Y305464D01*
X253220D01*
Y305562D01*
X253121D01*
Y305760D01*
X253022D01*
Y305958D01*
X252923D01*
Y306156D01*
X252824D01*
Y306453D01*
X252726D01*
Y306650D01*
X252627D01*
Y306947D01*
X252528D01*
Y307145D01*
X252429D01*
Y307441D01*
X252330D01*
Y307738D01*
X252231D01*
Y307837D01*
X252330D01*
Y308035D01*
X252429D01*
Y308134D01*
X252528D01*
Y308232D01*
X252627D01*
Y308331D01*
X252824D01*
Y308430D01*
X253121D01*
Y308529D01*
X253319D01*
Y308628D01*
X253616D01*
Y308727D01*
X253912D01*
Y308826D01*
X254209D01*
Y308925D01*
X254506D01*
Y309024D01*
X254901D01*
Y309122D01*
X255099D01*
Y309221D01*
X255396D01*
Y309320D01*
X255791D01*
Y309419D01*
X256483D01*
Y309320D01*
X256582D01*
Y309221D01*
X256681D01*
Y309122D01*
X256780D01*
Y309024D01*
X256879D01*
Y308925D01*
X256978D01*
Y308727D01*
X257077D01*
Y308628D01*
X257176D01*
Y308430D01*
X257274D01*
Y308232D01*
X257373D01*
Y308035D01*
X257472D01*
Y307837D01*
X257571D01*
Y307738D01*
X257670D01*
Y307540D01*
X257769D01*
Y307342D01*
X257868D01*
Y307244D01*
X257967D01*
Y307046D01*
X258065D01*
Y306947D01*
X258164D01*
Y306848D01*
X258263D01*
Y306650D01*
X258362D01*
Y306551D01*
X258461D01*
Y306453D01*
X258560D01*
Y306354D01*
X258659D01*
Y306156D01*
X258758D01*
Y306057D01*
X258857D01*
Y305958D01*
X258955D01*
Y305859D01*
X259054D01*
Y305760D01*
X259153D01*
Y305661D01*
X259252D01*
Y305562D01*
X259351D01*
Y305464D01*
X259450D01*
Y305365D01*
X259549D01*
Y305266D01*
X259648D01*
Y305167D01*
X259845D01*
Y305068D01*
X259944D01*
Y304969D01*
X260043D01*
Y304870D01*
X260241D01*
Y304771D01*
X260340D01*
Y304673D01*
X260439D01*
Y304574D01*
X260637D01*
Y304475D01*
X260735D01*
Y304376D01*
X260933D01*
Y304277D01*
X261131D01*
Y304178D01*
X261230D01*
Y304079D01*
X261428D01*
Y303980D01*
X261625D01*
Y303881D01*
X261724D01*
Y303783D01*
X261922D01*
Y303684D01*
X262219D01*
Y303585D01*
X262416D01*
Y303486D01*
X262614D01*
Y303387D01*
X262911D01*
Y303288D01*
X263208D01*
Y303189D01*
X263603D01*
Y303090D01*
X263999D01*
Y302992D01*
X264295D01*
Y302893D01*
X264889D01*
Y302794D01*
X267064D01*
Y302893D01*
X267855D01*
Y302992D01*
X268350D01*
Y303090D01*
X268745D01*
Y303189D01*
X269042D01*
Y303288D01*
X269438D01*
Y303387D01*
X269734D01*
Y303486D01*
X269932D01*
Y303585D01*
X270130D01*
Y303684D01*
X270327D01*
Y303783D01*
X270525D01*
Y303881D01*
X270723D01*
Y303980D01*
X270921D01*
Y304079D01*
X271119D01*
Y304178D01*
X271217D01*
Y304277D01*
X271415D01*
Y304376D01*
X271514D01*
Y304475D01*
X271613D01*
Y304574D01*
X271811D01*
Y304673D01*
X271910D01*
Y304771D01*
X272008D01*
Y304870D01*
X272107D01*
Y304969D01*
X272206D01*
Y305068D01*
X272305D01*
Y305167D01*
X272503D01*
Y305266D01*
X272602D01*
Y305365D01*
X272701D01*
Y305562D01*
X272800D01*
Y305661D01*
X272899D01*
Y305760D01*
X272997D01*
Y305859D01*
X273096D01*
Y305958D01*
X273195D01*
Y306057D01*
X273294D01*
Y306156D01*
X273393D01*
Y306255D01*
X273492D01*
Y306453D01*
X273591D01*
Y306551D01*
X273690D01*
Y306749D01*
X273788D01*
Y306848D01*
X273887D01*
Y306947D01*
X273986D01*
Y307145D01*
X274085D01*
Y307342D01*
X274184D01*
Y307540D01*
X274283D01*
Y307837D01*
X274184D01*
Y308035D01*
X274085D01*
Y308232D01*
X273887D01*
Y308331D01*
X273788D01*
Y308430D01*
X273492D01*
Y308529D01*
X273195D01*
Y308628D01*
X272800D01*
Y308727D01*
X272503D01*
Y308826D01*
X272206D01*
Y308925D01*
X271910D01*
Y309024D01*
X271514D01*
Y309122D01*
X271217D01*
Y309221D01*
X271020D01*
Y309320D01*
X270723D01*
Y309419D01*
X270426D01*
Y309518D01*
X270130D01*
Y309617D01*
X269734D01*
Y309716D01*
X269536D01*
Y309815D01*
X269240D01*
Y309914D01*
X268943D01*
Y310012D01*
X268547D01*
Y310111D01*
X268251D01*
Y310210D01*
X267954D01*
Y310309D01*
X267658D01*
Y310408D01*
X267361D01*
Y310507D01*
X267064D01*
Y310606D01*
X266669D01*
Y310705D01*
X266372D01*
Y310804D01*
X266075D01*
Y310902D01*
X265779D01*
Y311001D01*
X265383D01*
Y311100D01*
X265086D01*
Y311199D01*
X264790D01*
Y311298D01*
X264592D01*
Y311397D01*
X264196D01*
Y311496D01*
X263900D01*
Y311595D01*
X263504D01*
Y311694D01*
X263208D01*
Y311792D01*
X262911D01*
Y311891D01*
X262614D01*
Y311990D01*
X262318D01*
Y312089D01*
X262021D01*
Y312188D01*
X261724D01*
Y312287D01*
X261527D01*
Y312386D01*
X261230D01*
Y312485D01*
X260933D01*
Y312584D01*
X260637D01*
Y312682D01*
X260340D01*
Y312781D01*
X260043D01*
Y312880D01*
X259746D01*
Y312979D01*
X259351D01*
Y313078D01*
X259153D01*
Y313177D01*
X258857D01*
Y313276D01*
X258560D01*
Y313375D01*
X258164D01*
Y313473D01*
X257868D01*
Y313572D01*
X257571D01*
Y313671D01*
X257274D01*
Y313770D01*
X256978D01*
Y313869D01*
X256681D01*
Y313968D01*
X256384D01*
Y314067D01*
X256088D01*
Y314166D01*
X255791D01*
Y314265D01*
X255494D01*
Y314363D01*
X255099D01*
Y314462D01*
X254901D01*
Y314561D01*
X254604D01*
Y314660D01*
X254308D01*
Y314759D01*
X253912D01*
Y314858D01*
X253616D01*
Y314957D01*
X253319D01*
Y315056D01*
X253121D01*
Y315154D01*
X253022D01*
Y315253D01*
X252923D01*
Y315352D01*
X252824D01*
Y315748D01*
X252923D01*
Y316045D01*
X253022D01*
Y316341D01*
X253121D01*
Y316638D01*
X253220D01*
Y316836D01*
X253319D01*
Y317132D01*
X253418D01*
Y317330D01*
X253517D01*
Y317627D01*
X253616D01*
Y317824D01*
X253715D01*
Y318022D01*
X253813D01*
Y318220D01*
X253912D01*
Y318418D01*
X254011D01*
Y318616D01*
X254110D01*
Y318813D01*
X254209D01*
Y319011D01*
X254308D01*
Y319110D01*
X254407D01*
Y319308D01*
X254506D01*
Y319407D01*
X254604D01*
Y319604D01*
X254703D01*
Y319802D01*
X254802D01*
Y319901D01*
X254901D01*
Y320000D01*
X255000D01*
Y320198D01*
X255099D01*
Y320297D01*
X255198D01*
Y320396D01*
X255297D01*
Y320593D01*
X255396D01*
Y320692D01*
X255494D01*
Y320791D01*
X255593D01*
Y320890D01*
X255692D01*
Y321088D01*
X255791D01*
Y321187D01*
X255890D01*
Y321286D01*
X255989D01*
Y321384D01*
X256088D01*
Y321483D01*
X256187D01*
Y321582D01*
X256285D01*
Y321681D01*
X256384D01*
Y321780D01*
X256483D01*
Y321879D01*
X256582D01*
Y321978D01*
X256681D01*
Y322077D01*
X256780D01*
Y322175D01*
X256879D01*
Y322274D01*
X256978D01*
Y322373D01*
X257077D01*
Y322472D01*
X257176D01*
Y322571D01*
X257274D01*
Y322670D01*
X257472D01*
Y322769D01*
X257571D01*
Y322868D01*
X257670D01*
Y322967D01*
X257769D01*
Y323065D01*
X257967D01*
Y323164D01*
X258065D01*
Y323263D01*
X258164D01*
Y323362D01*
X258362D01*
Y323461D01*
X258461D01*
Y323560D01*
X258659D01*
Y323659D01*
X258758D01*
Y323758D01*
X258955D01*
Y323857D01*
X259054D01*
Y323955D01*
X259252D01*
Y324054D01*
X259450D01*
Y324153D01*
X259549D01*
Y324252D01*
X259746D01*
Y324351D01*
X259944D01*
Y324450D01*
X260142D01*
Y324549D01*
X260340D01*
Y324648D01*
X260538D01*
Y324747D01*
X260735D01*
Y324846D01*
X261032D01*
Y324944D01*
X261230D01*
Y325043D01*
X261527D01*
Y325142D01*
X261724D01*
Y325241D01*
X262021D01*
Y325340D01*
X262318D01*
Y325439D01*
X262713D01*
Y325538D01*
X263109D01*
Y325636D01*
X263405D01*
Y325735D01*
X263999D01*
Y325834D01*
X264691D01*
Y325933D01*
X265877D01*
Y326032D01*
X267361D01*
Y325933D01*
D02*
G37*
G36*
X215940Y313671D02*
X216830D01*
Y313572D01*
X217324D01*
Y313473D01*
X217720D01*
Y313375D01*
X217917D01*
Y313276D01*
X218214D01*
Y313177D01*
X218412D01*
Y313078D01*
X218610D01*
Y312979D01*
X218807D01*
Y312880D01*
X219005D01*
Y312781D01*
X219203D01*
Y312682D01*
X219302D01*
Y312584D01*
X219500D01*
Y312485D01*
X219599D01*
Y312386D01*
X219796D01*
Y312287D01*
X219895D01*
Y312188D01*
X219994D01*
Y312089D01*
X220192D01*
Y311990D01*
X220291D01*
Y311891D01*
X220390D01*
Y311792D01*
X220488D01*
Y311694D01*
X220587D01*
Y311595D01*
X220686D01*
Y311397D01*
X220785D01*
Y311298D01*
X220884D01*
Y311199D01*
X220983D01*
Y311100D01*
X221082D01*
Y310902D01*
X221181D01*
Y310804D01*
X221280D01*
Y310606D01*
X221378D01*
Y310408D01*
X221477D01*
Y310309D01*
X221576D01*
Y310111D01*
X221675D01*
Y309914D01*
X221774D01*
Y309617D01*
X221873D01*
Y309419D01*
X221972D01*
Y309122D01*
X222071D01*
Y308826D01*
X222170D01*
Y308430D01*
X222269D01*
Y307837D01*
X222367D01*
Y305760D01*
X222269D01*
Y305167D01*
X222170D01*
Y304771D01*
X222071D01*
Y304475D01*
X221972D01*
Y304277D01*
X221873D01*
Y303980D01*
X221774D01*
Y303783D01*
X221675D01*
Y303585D01*
X221576D01*
Y303486D01*
X221477D01*
Y303288D01*
X221378D01*
Y303090D01*
X221280D01*
Y302992D01*
X221181D01*
Y302794D01*
X221082D01*
Y302695D01*
X220983D01*
Y302596D01*
X220884D01*
Y302497D01*
X220785D01*
Y302299D01*
X220686D01*
Y302200D01*
X220587D01*
Y302101D01*
X220488D01*
Y302003D01*
X220390D01*
Y301904D01*
X220291D01*
Y301805D01*
X220192D01*
Y301706D01*
X220093D01*
Y301607D01*
X219994D01*
Y301508D01*
X219895D01*
Y301409D01*
X219697D01*
Y301310D01*
X219599D01*
Y301212D01*
X219500D01*
Y301113D01*
X219302D01*
Y301014D01*
X219203D01*
Y300915D01*
X219005D01*
Y300816D01*
X218807D01*
Y300717D01*
X218709D01*
Y300618D01*
X218511D01*
Y300519D01*
X218313D01*
Y300420D01*
X218115D01*
Y300322D01*
X217819D01*
Y300223D01*
X217522D01*
Y300124D01*
X208919D01*
Y300223D01*
X208820D01*
Y300322D01*
X208721D01*
Y300420D01*
X208622D01*
Y300618D01*
X208523D01*
Y302299D01*
X208622D01*
Y302398D01*
X208721D01*
Y302497D01*
X208820D01*
Y302596D01*
X208919D01*
Y302695D01*
X209018D01*
Y302794D01*
X211292D01*
Y302695D01*
X216138D01*
Y302794D01*
X216731D01*
Y302893D01*
X217027D01*
Y302992D01*
X217324D01*
Y303090D01*
X217522D01*
Y303189D01*
X217720D01*
Y303288D01*
X217819D01*
Y303387D01*
X217917D01*
Y303486D01*
X218016D01*
Y303585D01*
X218214D01*
Y303684D01*
X218313D01*
Y303881D01*
X218511D01*
Y304079D01*
X218610D01*
Y304178D01*
X218709D01*
Y304277D01*
X218807D01*
Y304376D01*
X218906D01*
Y304475D01*
X219005D01*
Y304574D01*
X219104D01*
Y304771D01*
X219203D01*
Y304870D01*
X219302D01*
Y305068D01*
X219401D01*
Y305266D01*
X219500D01*
Y305562D01*
X219599D01*
Y305859D01*
X219697D01*
Y306453D01*
X219796D01*
Y307540D01*
X219697D01*
Y307936D01*
X219599D01*
Y308331D01*
X219500D01*
Y308529D01*
X219401D01*
Y308727D01*
X219302D01*
Y308925D01*
X219203D01*
Y309122D01*
X219104D01*
Y309221D01*
X219005D01*
Y309320D01*
X218906D01*
Y309419D01*
X218807D01*
Y309617D01*
X218709D01*
Y309716D01*
X218610D01*
Y309815D01*
X218511D01*
Y309914D01*
X218313D01*
Y310012D01*
X218214D01*
Y310111D01*
X218115D01*
Y310210D01*
X218016D01*
Y310309D01*
X217819D01*
Y310408D01*
X217720D01*
Y310507D01*
X217522D01*
Y310606D01*
X217324D01*
Y310705D01*
X217126D01*
Y310804D01*
X216929D01*
Y310902D01*
X216533D01*
Y311001D01*
X215940D01*
Y311100D01*
X215247D01*
Y311001D01*
X214555D01*
Y310902D01*
X214160D01*
Y310804D01*
X213863D01*
Y310705D01*
X213566D01*
Y310606D01*
X213369D01*
Y310507D01*
X213072D01*
Y310408D01*
X212874D01*
Y310309D01*
X212676D01*
Y310210D01*
X212578D01*
Y310111D01*
X212083D01*
Y310210D01*
X211984D01*
Y310309D01*
X211885D01*
Y310408D01*
X211786D01*
Y312485D01*
X211885D01*
Y312682D01*
X211984D01*
Y312781D01*
X212083D01*
Y312880D01*
X212182D01*
Y312979D01*
X212281D01*
Y313078D01*
X212479D01*
Y313177D01*
X212775D01*
Y313276D01*
X212973D01*
Y313375D01*
X213270D01*
Y313473D01*
X213665D01*
Y313572D01*
X214160D01*
Y313671D01*
X215050D01*
Y313770D01*
X215940D01*
Y313671D01*
D02*
G37*
G36*
X233937Y313276D02*
X234432D01*
Y313177D01*
X234827D01*
Y313078D01*
X235223D01*
Y312979D01*
X235519D01*
Y312880D01*
X235717D01*
Y312781D01*
X235915D01*
Y312682D01*
X236113D01*
Y312584D01*
X236310D01*
Y312485D01*
X236508D01*
Y312386D01*
X236607D01*
Y312287D01*
X236706D01*
Y312188D01*
X236904D01*
Y312089D01*
X237003D01*
Y311990D01*
X237200D01*
Y311891D01*
X237299D01*
Y311792D01*
X237398D01*
Y311694D01*
X237497D01*
Y311595D01*
X237596D01*
Y311496D01*
X237695D01*
Y311397D01*
X237794D01*
Y311298D01*
X237893D01*
Y311199D01*
X237991D01*
Y311100D01*
X238090D01*
Y310902D01*
X238189D01*
Y310804D01*
X238288D01*
Y310705D01*
X238387D01*
Y310507D01*
X238486D01*
Y310408D01*
X238585D01*
Y310309D01*
X238684D01*
Y310111D01*
X238783D01*
Y309914D01*
X238881D01*
Y309716D01*
X238980D01*
Y309518D01*
X239079D01*
Y309320D01*
X239178D01*
Y309122D01*
X239277D01*
Y308826D01*
X239376D01*
Y308430D01*
X239475D01*
Y308134D01*
X239574D01*
Y307639D01*
X239673D01*
Y305167D01*
X239574D01*
Y304673D01*
X239475D01*
Y304376D01*
X239376D01*
Y304079D01*
X239277D01*
Y303684D01*
X239178D01*
Y303486D01*
X239079D01*
Y303189D01*
X238980D01*
Y303090D01*
X238881D01*
Y302893D01*
X238783D01*
Y302695D01*
X238684D01*
Y302596D01*
X238585D01*
Y302398D01*
X238486D01*
Y302299D01*
X238387D01*
Y302101D01*
X238288D01*
Y302003D01*
X238189D01*
Y301904D01*
X238090D01*
Y301805D01*
X237991D01*
Y301706D01*
X237893D01*
Y301508D01*
X237794D01*
Y301409D01*
X237695D01*
Y301310D01*
X237497D01*
Y301212D01*
X237398D01*
Y301113D01*
X237299D01*
Y301014D01*
X237200D01*
Y300915D01*
X237003D01*
Y300816D01*
X236904D01*
Y300717D01*
X236706D01*
Y300618D01*
X236508D01*
Y300519D01*
X236310D01*
Y300420D01*
X236014D01*
Y300322D01*
X235816D01*
Y300223D01*
X235420D01*
Y300124D01*
X234926D01*
Y300025D01*
X234234D01*
Y299926D01*
X231168D01*
Y300025D01*
X230872D01*
Y299926D01*
X230773D01*
Y300025D01*
X230575D01*
Y299926D01*
X230377D01*
Y300025D01*
X220686D01*
Y300124D01*
X220488D01*
Y300223D01*
X220390D01*
Y300322D01*
X220291D01*
Y300717D01*
X220390D01*
Y300816D01*
X220488D01*
Y300915D01*
X220686D01*
Y301014D01*
X220785D01*
Y301113D01*
X220884D01*
Y301212D01*
X220983D01*
Y301310D01*
X221082D01*
Y301508D01*
X221181D01*
Y301607D01*
X221280D01*
Y301706D01*
X221378D01*
Y301805D01*
X221477D01*
Y301904D01*
X221675D01*
Y302003D01*
X221774D01*
Y302101D01*
X221972D01*
Y302200D01*
X228795D01*
Y302101D01*
X233245D01*
Y302200D01*
X233937D01*
Y302299D01*
X234333D01*
Y302398D01*
X234531D01*
Y302497D01*
X234827D01*
Y302596D01*
X235025D01*
Y302695D01*
X235223D01*
Y302794D01*
X235420D01*
Y302893D01*
X235519D01*
Y302992D01*
X235717D01*
Y303090D01*
X235816D01*
Y303189D01*
X235915D01*
Y303288D01*
X236014D01*
Y303387D01*
X236113D01*
Y303486D01*
X236211D01*
Y303585D01*
X236310D01*
Y303684D01*
X236409D01*
Y303881D01*
X236508D01*
Y303980D01*
X236607D01*
Y304178D01*
X236706D01*
Y304376D01*
X236805D01*
Y304574D01*
X236904D01*
Y304771D01*
X237003D01*
Y305068D01*
X237101D01*
Y305562D01*
X237003D01*
Y305661D01*
X236904D01*
Y305760D01*
X236706D01*
Y305859D01*
X226916D01*
Y305958D01*
X226817D01*
Y306057D01*
X226619D01*
Y306255D01*
X226521D01*
Y306354D01*
X226422D01*
Y306551D01*
X226323D01*
Y306749D01*
X226422D01*
Y307540D01*
X226521D01*
Y307936D01*
X226619D01*
Y308331D01*
X226718D01*
Y308727D01*
X226817D01*
Y309024D01*
X226916D01*
Y309221D01*
X227015D01*
Y309518D01*
X227114D01*
Y309617D01*
X227213D01*
Y309914D01*
X227312D01*
Y310012D01*
X227411D01*
Y310210D01*
X227509D01*
Y310309D01*
X227608D01*
Y310507D01*
X227707D01*
Y310705D01*
X227806D01*
Y310804D01*
X227905D01*
Y310902D01*
X228004D01*
Y311001D01*
X228103D01*
Y311199D01*
X228202D01*
Y311298D01*
X228301D01*
Y311397D01*
X228399D01*
Y311496D01*
X228498D01*
Y311595D01*
X228597D01*
Y311694D01*
X228696D01*
Y311792D01*
X228894D01*
Y311891D01*
X228993D01*
Y311990D01*
X229092D01*
Y312089D01*
X229191D01*
Y312188D01*
X229388D01*
Y312287D01*
X229487D01*
Y312386D01*
X229685D01*
Y312485D01*
X229784D01*
Y312584D01*
X229982D01*
Y312682D01*
X230179D01*
Y312781D01*
X230377D01*
Y312880D01*
X230575D01*
Y312979D01*
X230872D01*
Y313078D01*
X231168D01*
Y313177D01*
X231564D01*
Y313276D01*
X231959D01*
Y313375D01*
X233937D01*
Y313276D01*
D02*
G37*
G36*
X248276Y316638D02*
X248572D01*
Y316539D01*
X248671D01*
Y316440D01*
X248770D01*
Y316143D01*
X248869D01*
Y315451D01*
X248968D01*
Y314561D01*
X248869D01*
Y314462D01*
X248968D01*
Y314265D01*
X248869D01*
Y313473D01*
X248968D01*
Y313276D01*
X249067D01*
Y313177D01*
X249166D01*
Y313078D01*
X249265D01*
Y312979D01*
X251440D01*
Y312880D01*
X251638D01*
Y312781D01*
X251836D01*
Y312682D01*
X251935D01*
Y312485D01*
X252033D01*
Y312287D01*
Y312188D01*
X252132D01*
Y312089D01*
X252033D01*
Y310705D01*
X251935D01*
Y310507D01*
X251836D01*
Y310408D01*
X251638D01*
Y310309D01*
X251440D01*
Y310210D01*
X249265D01*
Y310111D01*
X249067D01*
Y310012D01*
X248968D01*
Y309815D01*
X248869D01*
Y300618D01*
X248770D01*
Y300223D01*
X248671D01*
Y300124D01*
X248572D01*
Y300025D01*
X248473D01*
Y299926D01*
X248375D01*
Y299827D01*
X238288D01*
Y299926D01*
X238189D01*
Y300025D01*
X238090D01*
Y300519D01*
X238189D01*
Y300618D01*
X238288D01*
Y300717D01*
X238387D01*
Y300816D01*
X238486D01*
Y300915D01*
X238585D01*
Y301014D01*
X238684D01*
Y301113D01*
X238783D01*
Y301212D01*
X238881D01*
Y301310D01*
X238980D01*
Y301409D01*
X239079D01*
Y301508D01*
X239178D01*
Y301607D01*
X239277D01*
Y301706D01*
X239475D01*
Y301805D01*
X239574D01*
Y301904D01*
X239870D01*
Y302003D01*
X245606D01*
Y302101D01*
X245705D01*
Y302200D01*
X245804D01*
Y302299D01*
X245902D01*
Y302398D01*
X246001D01*
Y309914D01*
X245902D01*
Y310012D01*
X245804D01*
Y310111D01*
X245705D01*
Y310210D01*
X243134D01*
Y310309D01*
X242936D01*
Y310408D01*
X242738D01*
Y310606D01*
X242639D01*
Y310705D01*
X242540D01*
Y312485D01*
X242639D01*
Y312682D01*
X242738D01*
Y312781D01*
X242936D01*
Y312880D01*
X243134D01*
Y312979D01*
X245606D01*
Y313078D01*
X245804D01*
Y313177D01*
X245902D01*
Y313276D01*
X246001D01*
Y316143D01*
X246100D01*
Y316341D01*
X246199D01*
Y316440D01*
X246298D01*
Y316539D01*
X246397D01*
Y316638D01*
X246496D01*
Y316737D01*
X248276D01*
Y316638D01*
D02*
G37*
G36*
X287534Y293004D02*
X287435D01*
Y292905D01*
X287237D01*
Y292806D01*
X287039D01*
Y292707D01*
X286842D01*
Y292608D01*
X286644D01*
Y292509D01*
X286347D01*
Y292411D01*
X147609D01*
Y292509D01*
X147411D01*
Y292608D01*
X147213D01*
Y292707D01*
X147115D01*
Y292806D01*
X146917D01*
Y292905D01*
X146818D01*
Y293004D01*
X146521D01*
Y293103D01*
X287534D01*
Y293004D01*
D02*
G37*
%LPC*%
G36*
X194382Y310111D02*
X192108D01*
Y310012D01*
X191910D01*
Y309815D01*
X191811D01*
Y309716D01*
X191712D01*
Y308727D01*
Y308628D01*
Y307738D01*
X191811D01*
Y307639D01*
X191910D01*
Y307540D01*
X192009D01*
Y307441D01*
X192108D01*
Y307342D01*
X194382D01*
Y310111D01*
D02*
G37*
G36*
X186966Y309815D02*
X186867D01*
Y309716D01*
X186768D01*
Y309320D01*
X186669D01*
Y309024D01*
X186570D01*
Y308727D01*
X186472D01*
Y308430D01*
X186373D01*
Y308035D01*
X186274D01*
Y307639D01*
X186175D01*
Y307342D01*
X186076D01*
Y307046D01*
X185977D01*
Y306749D01*
X185878D01*
Y306354D01*
X185779D01*
Y306156D01*
X187955D01*
Y306453D01*
X187856D01*
Y306848D01*
X187757D01*
Y307145D01*
X187658D01*
Y307441D01*
X187559D01*
Y307837D01*
X187460D01*
Y308134D01*
X187361D01*
Y308430D01*
X187262D01*
Y308727D01*
X187164D01*
Y309122D01*
X187065D01*
Y309419D01*
X186966D01*
Y309815D01*
D02*
G37*
G36*
X267658Y320989D02*
X265284D01*
Y320890D01*
X264790D01*
Y320791D01*
X264394D01*
Y320692D01*
X263999D01*
Y320593D01*
X263702D01*
Y320494D01*
X263405D01*
Y320396D01*
X263208D01*
Y320297D01*
X263010D01*
Y320198D01*
X262812D01*
Y320099D01*
X262614D01*
Y320000D01*
X262416D01*
Y319901D01*
X262219D01*
Y319802D01*
X262021D01*
Y319703D01*
X261823D01*
Y319604D01*
X261724D01*
Y319506D01*
X261527D01*
Y319407D01*
X261428D01*
Y319308D01*
X261230D01*
Y319209D01*
X261131D01*
Y319110D01*
X260933D01*
Y319011D01*
X260834D01*
Y318912D01*
X260735D01*
Y318813D01*
X260538D01*
Y318715D01*
X260439D01*
Y318616D01*
X260340D01*
Y318517D01*
X260241D01*
Y318418D01*
X260142D01*
Y318319D01*
X260043D01*
Y318121D01*
X259944D01*
Y317824D01*
X260043D01*
Y317726D01*
X260142D01*
Y317627D01*
X260241D01*
Y317528D01*
X260439D01*
Y317429D01*
X260735D01*
Y317330D01*
X260933D01*
Y317231D01*
X261230D01*
Y317132D01*
X261527D01*
Y317033D01*
X261823D01*
Y316935D01*
X262120D01*
Y316836D01*
X262515D01*
Y316737D01*
X262812D01*
Y316638D01*
X263010D01*
Y316539D01*
X263307D01*
Y316440D01*
X263702D01*
Y316341D01*
X263999D01*
Y316242D01*
X264295D01*
Y316143D01*
X264592D01*
Y316045D01*
X264889D01*
Y315946D01*
X265284D01*
Y315847D01*
X265581D01*
Y315748D01*
X265877D01*
Y315649D01*
X266174D01*
Y315550D01*
X266471D01*
Y315451D01*
X266768D01*
Y315352D01*
X267064D01*
Y315253D01*
X267361D01*
Y315154D01*
X267559D01*
Y315056D01*
X267954D01*
Y314957D01*
X268251D01*
Y314858D01*
X268547D01*
Y314759D01*
X268844D01*
Y314660D01*
X269141D01*
Y314561D01*
X269438D01*
Y314462D01*
X269833D01*
Y314363D01*
X270130D01*
Y314265D01*
X270426D01*
Y314166D01*
X270723D01*
Y314067D01*
X271020D01*
Y313968D01*
X271415D01*
Y313869D01*
X271613D01*
Y313770D01*
X271910D01*
Y313671D01*
X272206D01*
Y313572D01*
X272503D01*
Y313473D01*
X272800D01*
Y313375D01*
X273096D01*
Y313276D01*
X273393D01*
Y313177D01*
X273690D01*
Y313078D01*
X273986D01*
Y312979D01*
X274382D01*
Y312880D01*
X274678D01*
Y312781D01*
X274975D01*
Y312880D01*
X275173D01*
Y312979D01*
X275272D01*
Y313177D01*
X275371D01*
Y313473D01*
X275272D01*
Y313968D01*
X275173D01*
Y314363D01*
X275074D01*
Y314759D01*
X274975D01*
Y315056D01*
X274876D01*
Y315253D01*
X274777D01*
Y315550D01*
X274678D01*
Y315748D01*
X274580D01*
Y315946D01*
X274481D01*
Y316143D01*
X274382D01*
Y316341D01*
X274283D01*
Y316539D01*
X274184D01*
Y316737D01*
X274085D01*
Y316935D01*
X273986D01*
Y317033D01*
X273887D01*
Y317231D01*
X273788D01*
Y317330D01*
X273690D01*
Y317429D01*
X273591D01*
Y317627D01*
X273492D01*
Y317726D01*
X273393D01*
Y317824D01*
X273294D01*
Y317923D01*
X273195D01*
Y318022D01*
X273096D01*
Y318220D01*
X272997D01*
Y318319D01*
X272899D01*
Y318418D01*
X272800D01*
Y318517D01*
X272602D01*
Y318616D01*
X272503D01*
Y318715D01*
X272404D01*
Y318813D01*
X272305D01*
Y318912D01*
X272206D01*
Y319011D01*
X272008D01*
Y319110D01*
X271910D01*
Y319209D01*
X271811D01*
Y319308D01*
X271613D01*
Y319407D01*
X271415D01*
Y319506D01*
X271316D01*
Y319604D01*
X271119D01*
Y319703D01*
X270921D01*
Y319802D01*
X270723D01*
Y319901D01*
X270525D01*
Y320000D01*
X270327D01*
Y320099D01*
X270130D01*
Y320198D01*
X269932D01*
Y320297D01*
X269635D01*
Y320396D01*
X269438D01*
Y320494D01*
X269141D01*
Y320593D01*
X268943D01*
Y320692D01*
X268547D01*
Y320791D01*
X268152D01*
Y320890D01*
X267658D01*
Y320989D01*
D02*
G37*
G36*
X233344Y310804D02*
X232652D01*
Y310705D01*
X232157D01*
Y310606D01*
X231762D01*
Y310507D01*
X231465D01*
Y310408D01*
X231267D01*
Y310309D01*
X231069D01*
Y310210D01*
X230970D01*
Y310111D01*
X230773D01*
Y310012D01*
X230575D01*
Y309914D01*
X230476D01*
Y309815D01*
X230377D01*
Y309716D01*
X230278D01*
Y309617D01*
X230179D01*
Y309518D01*
X230081D01*
Y309419D01*
X229982D01*
Y309320D01*
X229883D01*
Y309221D01*
X229784D01*
Y309122D01*
X229685D01*
Y309024D01*
X229586D01*
Y308826D01*
X229487D01*
Y308727D01*
X229388D01*
Y308430D01*
X229487D01*
Y308232D01*
X229685D01*
Y308134D01*
X235816D01*
Y308035D01*
X236409D01*
Y308134D01*
X236607D01*
Y308331D01*
X236706D01*
Y308628D01*
X236607D01*
Y308826D01*
X236508D01*
Y308925D01*
X236409D01*
Y309122D01*
X236310D01*
Y309221D01*
X236211D01*
Y309320D01*
X236113D01*
Y309419D01*
X236014D01*
Y309617D01*
X235915D01*
Y309716D01*
X235717D01*
Y309815D01*
X235618D01*
Y309914D01*
X235519D01*
Y310012D01*
X235420D01*
Y310111D01*
X235223D01*
Y310210D01*
X235025D01*
Y310309D01*
X234926D01*
Y310408D01*
X234629D01*
Y310507D01*
X234333D01*
Y310606D01*
X233937D01*
Y310705D01*
X233344D01*
Y310804D01*
D02*
G37*
%LPD*%
D22*
X231000Y173000D02*
D03*
X41000D02*
D03*
X346000Y471000D02*
D03*
Y261000D02*
D03*
X455000Y390000D02*
D03*
Y420000D02*
D03*
Y280000D02*
D03*
Y310000D02*
D03*
X339000Y51157D02*
D03*
X369000D02*
D03*
X41000Y106000D02*
D03*
X231000D02*
D03*
X281000Y471000D02*
D03*
Y261000D02*
D03*
X151000D02*
D03*
Y471000D02*
D03*
X216000Y261000D02*
D03*
Y471000D02*
D03*
X86000Y261000D02*
D03*
Y471000D02*
D03*
D26*
X29000Y312000D02*
D03*
Y244000D02*
D03*
Y417000D02*
D03*
Y349000D02*
D03*
X436000Y358500D02*
D03*
X436000Y449500D02*
D03*
X436000Y248500D02*
D03*
X436000Y339500D02*
D03*
X307500Y70158D02*
D03*
X398500Y70157D02*
D03*
D27*
X30000Y30000D02*
D03*
Y470000D02*
D03*
X470000D02*
D03*
Y30000D02*
D03*
M02*
