G04*
G04 #@! TF.GenerationSoftware,Altium Limited,Altium Designer,22.11.1 (43)*
G04*
G04 Layer_Color=128*
%FSLAX44Y44*%
%MOMM*%
G71*
G04*
G04 #@! TF.SameCoordinates,647DE173-6EC2-479C-8ABE-F2EAD9736DF7*
G04*
G04*
G04 #@! TF.FilePolarity,Positive*
G04*
G01*
G75*
%ADD34C,0.1270*%
D34*
X225250Y173000D02*
X236750D01*
X231000Y167250D02*
Y178750D01*
X35250Y173000D02*
X46750D01*
X41000Y167250D02*
Y178750D01*
X340250Y471000D02*
X351750D01*
X346000Y465250D02*
Y476750D01*
X340250Y261000D02*
X351750D01*
X346000Y255250D02*
Y266750D01*
X449900Y390000D02*
X460100D01*
X455000Y384900D02*
Y395100D01*
X449900Y420000D02*
X460100D01*
X455000Y414900D02*
Y425100D01*
X449900Y280000D02*
X460100D01*
X455000Y274900D02*
Y285100D01*
X449900Y310000D02*
X460100D01*
X455000Y304900D02*
Y315100D01*
X333900Y51157D02*
X344100D01*
X339000Y46058D02*
Y56258D01*
X363900Y51157D02*
X374100D01*
X369000Y46058D02*
Y56258D01*
X35250Y106000D02*
X46750D01*
X41000Y100250D02*
Y111750D01*
X225250Y106000D02*
X236750D01*
X231000Y100250D02*
Y111750D01*
X275250Y471000D02*
X286750D01*
X281000Y465250D02*
Y476750D01*
X275250Y261000D02*
X286750D01*
X281000Y255250D02*
Y266750D01*
X25000Y312000D02*
X33000D01*
X29000Y308000D02*
Y316000D01*
X25000Y244000D02*
X33000D01*
X29000Y240000D02*
Y248000D01*
X25000Y417000D02*
X33000D01*
X29000Y413000D02*
Y421000D01*
X25000Y349000D02*
X33000D01*
X29000Y345000D02*
Y353000D01*
X145250Y261000D02*
X156750D01*
X151000Y255250D02*
Y266750D01*
X145250Y471000D02*
X156750D01*
X151000Y465250D02*
Y476750D01*
X210250Y261000D02*
X221750D01*
X216000Y255250D02*
Y266750D01*
X210250Y471000D02*
X221750D01*
X216000Y465250D02*
Y476750D01*
X80250Y261000D02*
X91750D01*
X86000Y255250D02*
Y266750D01*
X80250Y471000D02*
X91750D01*
X86000Y465250D02*
Y476750D01*
X428500Y358500D02*
X443500D01*
X436000Y351000D02*
Y366000D01*
X428500Y449500D02*
X443500D01*
X436000Y442000D02*
Y457000D01*
X428500Y248500D02*
X443500D01*
X436000Y241000D02*
Y256000D01*
X428500Y339500D02*
X443500D01*
X436000Y332000D02*
Y347000D01*
X300000Y70158D02*
X315000D01*
X307500Y62658D02*
Y77658D01*
X391000Y70157D02*
X406000D01*
X398500Y62657D02*
Y77657D01*
X14000Y30000D02*
X46000D01*
X30000Y14000D02*
Y46000D01*
X14000Y470000D02*
X46000D01*
X30000Y454000D02*
Y486000D01*
X454000Y470000D02*
X486000D01*
X470000Y454000D02*
Y486000D01*
X454000Y30000D02*
X486000D01*
X470000Y14000D02*
Y46000D01*
M02*
