G04*
G04 #@! TF.GenerationSoftware,Altium Limited,Altium Designer,22.11.1 (43)*
G04*
G04 Layer_Color=8388736*
%FSLAX44Y44*%
%MOMM*%
G71*
G04*
G04 #@! TF.SameCoordinates,647DE173-6EC2-479C-8ABE-F2EAD9736DF7*
G04*
G04*
G04 #@! TF.FilePolarity,Negative*
G04*
G01*
G75*
G04:AMPARAMS|DCode=20|XSize=1.8032mm|YSize=3.7032mm|CornerRadius=0.5016mm|HoleSize=0mm|Usage=FLASHONLY|Rotation=270.000|XOffset=0mm|YOffset=0mm|HoleType=Round|Shape=RoundedRectangle|*
%AMROUNDEDRECTD20*
21,1,1.8032,2.7000,0,0,270.0*
21,1,0.8000,3.7032,0,0,270.0*
1,1,1.0032,-1.3500,-0.4000*
1,1,1.0032,-1.3500,0.4000*
1,1,1.0032,1.3500,0.4000*
1,1,1.0032,1.3500,-0.4000*
%
%ADD20ROUNDEDRECTD20*%
G04:AMPARAMS|DCode=21|XSize=12.4032mm|YSize=9.9532mm|CornerRadius=2.5391mm|HoleSize=0mm|Usage=FLASHONLY|Rotation=270.000|XOffset=0mm|YOffset=0mm|HoleType=Round|Shape=RoundedRectangle|*
%AMROUNDEDRECTD21*
21,1,12.4032,4.8750,0,0,270.0*
21,1,7.3250,9.9532,0,0,270.0*
1,1,5.0782,-2.4375,-3.6625*
1,1,5.0782,-2.4375,3.6625*
1,1,5.0782,2.4375,3.6625*
1,1,5.0782,2.4375,-3.6625*
%
%ADD21ROUNDEDRECTD21*%
%ADD22C,2.2032*%
%ADD23R,2.1532X1.6032*%
%ADD24R,1.6032X2.1532*%
G04:AMPARAMS|DCode=25|XSize=1.3032mm|YSize=1.3032mm|CornerRadius=0.3766mm|HoleSize=0mm|Usage=FLASHONLY|Rotation=270.000|XOffset=0mm|YOffset=0mm|HoleType=Round|Shape=RoundedRectangle|*
%AMROUNDEDRECTD25*
21,1,1.3032,0.5500,0,0,270.0*
21,1,0.5500,1.3032,0,0,270.0*
1,1,0.7532,-0.2750,-0.2750*
1,1,0.7532,-0.2750,0.2750*
1,1,0.7532,0.2750,0.2750*
1,1,0.7532,0.2750,-0.2750*
%
%ADD25ROUNDEDRECTD25*%
%ADD26C,1.7032*%
%ADD27C,3.4032*%
D20*
X319250Y199400D02*
D03*
Y148600D02*
D03*
D21*
X422000Y174000D02*
D03*
D22*
X271000Y218000D02*
D03*
Y148000D02*
D03*
X400000Y465000D02*
D03*
X231000Y173000D02*
D03*
X41000D02*
D03*
X346000Y471000D02*
D03*
Y261000D02*
D03*
X455000Y390000D02*
D03*
Y420000D02*
D03*
Y280000D02*
D03*
Y310000D02*
D03*
X339000Y51157D02*
D03*
X369000D02*
D03*
X41000Y106000D02*
D03*
X231000D02*
D03*
X281000Y471000D02*
D03*
Y261000D02*
D03*
X151000D02*
D03*
Y471000D02*
D03*
X216000Y261000D02*
D03*
Y471000D02*
D03*
X86000Y261000D02*
D03*
Y471000D02*
D03*
D23*
X105000Y23000D02*
D03*
Y51000D02*
D03*
D24*
X148000Y59000D02*
D03*
X176000D02*
D03*
D25*
X250000Y37030D02*
D03*
Y64970D02*
D03*
D26*
X29000Y312000D02*
D03*
Y244000D02*
D03*
Y417000D02*
D03*
Y349000D02*
D03*
X436000Y358500D02*
D03*
X436000Y449500D02*
D03*
X436000Y248500D02*
D03*
X436000Y339500D02*
D03*
X307500Y70158D02*
D03*
X398500Y70157D02*
D03*
D27*
X30000Y30000D02*
D03*
Y470000D02*
D03*
X470000D02*
D03*
Y30000D02*
D03*
M02*
