G04*
G04 #@! TF.GenerationSoftware,Altium Limited,Altium Designer,22.11.1 (43)*
G04*
G04 Layer_Color=32768*
%FSLAX44Y44*%
%MOMM*%
G71*
G04*
G04 #@! TF.SameCoordinates,647DE173-6EC2-479C-8ABE-F2EAD9736DF7*
G04*
G04*
G04 #@! TF.FilePolarity,Positive*
G04*
G01*
G75*
%ADD10C,0.2000*%
%ADD12C,0.1000*%
%ADD33C,0.0500*%
G36*
X445132Y447444D02*
X445187Y447389D01*
X445271Y447333D01*
X445298Y447222D01*
X445326Y447084D01*
Y439449D01*
X445271Y439310D01*
X445215Y439227D01*
X445160Y439144D01*
X445048Y439116D01*
X444910Y439088D01*
X443549D01*
X443522D01*
X443494D01*
X443355Y439144D01*
X443272Y439199D01*
X443188Y439282D01*
X443161Y439394D01*
X443133Y439532D01*
Y441837D01*
X443105Y441920D01*
X443050Y442003D01*
X442911Y442031D01*
X432916D01*
X432889D01*
X432861D01*
X432722Y442086D01*
X432639Y442142D01*
X432556Y442197D01*
X432528Y442309D01*
X432500Y442447D01*
Y444196D01*
X432556Y444363D01*
X432611Y444446D01*
X432667Y444502D01*
X432778Y444557D01*
X432916Y444585D01*
X442911D01*
X442939D01*
X443022Y444613D01*
X443105Y444668D01*
X443133Y444807D01*
Y447139D01*
X443188Y447278D01*
X443244Y447361D01*
X443299Y447444D01*
X443410Y447472D01*
X443549Y447500D01*
X444910D01*
X444938D01*
X444965D01*
X445132Y447444D01*
D02*
G37*
G36*
X442300Y437894D02*
X442605Y437867D01*
X442939Y437811D01*
X443327Y437700D01*
X443744Y437561D01*
X444132Y437339D01*
X444465Y437061D01*
X444493Y437006D01*
X444604Y436895D01*
X444743Y436701D01*
X444910Y436423D01*
X445048Y436062D01*
X445187Y435646D01*
X445298Y435146D01*
X445326Y434591D01*
Y432342D01*
X445271Y432064D01*
X445215Y431703D01*
X445104Y431315D01*
X444965Y430898D01*
X444743Y430510D01*
X444465Y430149D01*
X444438Y430121D01*
X444299Y430010D01*
X444132Y429871D01*
X443855Y429704D01*
X443522Y429538D01*
X443105Y429399D01*
X442605Y429288D01*
X442050Y429260D01*
X441689D01*
X441661D01*
X441634D01*
X441495Y429316D01*
X441412Y429371D01*
X441328Y429427D01*
X441301Y429538D01*
X441273Y429677D01*
Y431426D01*
X441328Y431592D01*
X441384Y431676D01*
X441439Y431731D01*
X441550Y431787D01*
X441689Y431814D01*
X441800D01*
X441828D01*
X441939D01*
X442050Y431842D01*
X442217D01*
X442578Y431953D01*
X442744Y432009D01*
X442855Y432120D01*
X442911Y432175D01*
X442939Y432259D01*
X442994Y432370D01*
X443050Y432508D01*
X443077Y432703D01*
X443133Y432925D01*
Y434119D01*
X443105Y434257D01*
Y434424D01*
X442994Y434785D01*
X442939Y434952D01*
X442827Y435090D01*
X442800D01*
X442772Y435146D01*
X442689Y435174D01*
X442578Y435229D01*
X442411Y435285D01*
X442189Y435312D01*
X441939Y435368D01*
X441634D01*
X441245D01*
X441217D01*
X441106Y435340D01*
X440940Y435285D01*
X440745Y435174D01*
X440579Y434979D01*
X440468Y434841D01*
X440384Y434674D01*
X440301Y434479D01*
X440246Y434257D01*
X440190Y434008D01*
X440162Y433730D01*
Y433647D01*
X440135Y433563D01*
Y433452D01*
X440079Y433119D01*
X440024Y432730D01*
X439940Y432259D01*
X439829Y431759D01*
X439690Y431231D01*
X439496Y430732D01*
Y430704D01*
X439440Y430621D01*
X439357Y430482D01*
X439246Y430315D01*
X439107Y430149D01*
X438913Y429954D01*
X438691Y429760D01*
X438413Y429566D01*
X438386Y429538D01*
X438274Y429482D01*
X438108Y429427D01*
X437886Y429316D01*
X437580Y429232D01*
X437247Y429177D01*
X436859Y429121D01*
X436442Y429094D01*
X435776D01*
X435748D01*
X435720D01*
X435637D01*
X435526D01*
X435221Y429149D01*
X434888Y429205D01*
X434471Y429316D01*
X434082Y429455D01*
X433694Y429677D01*
X433333Y429982D01*
X433305Y430010D01*
X433194Y430149D01*
X433083Y430343D01*
X432916Y430593D01*
X432778Y430954D01*
X432639Y431370D01*
X432528Y431842D01*
X432500Y432397D01*
Y434729D01*
X432528Y434841D01*
X432556Y435118D01*
X432611Y435479D01*
X432694Y435868D01*
X432861Y436284D01*
X433055Y436673D01*
X433333Y437034D01*
X433361Y437061D01*
X433499Y437173D01*
X433694Y437311D01*
X433971Y437450D01*
X434305Y437617D01*
X434721Y437756D01*
X435221Y437867D01*
X435776Y437894D01*
X436165D01*
X436192D01*
X436220D01*
X436387Y437839D01*
X436442Y437783D01*
X436525Y437728D01*
X436553Y437617D01*
X436581Y437478D01*
Y435729D01*
X436525Y435562D01*
X436470Y435507D01*
X436414Y435424D01*
X436303Y435396D01*
X436165Y435368D01*
X435998D01*
X435970D01*
X435887D01*
X435748Y435340D01*
X435582D01*
X435248Y435229D01*
X435082Y435174D01*
X434971Y435063D01*
Y435035D01*
X434915Y435007D01*
X434888Y434924D01*
X434832Y434813D01*
X434776Y434646D01*
X434749Y434452D01*
X434693Y434230D01*
Y432897D01*
X434721Y432758D01*
Y432592D01*
X434804Y432231D01*
X434888Y432064D01*
X434971Y431925D01*
X434999Y431898D01*
X435026Y431870D01*
X435110Y431814D01*
X435221Y431759D01*
X435387Y431703D01*
X435582Y431676D01*
X435831Y431620D01*
X436109D01*
X436331D01*
X436359D01*
X436414D01*
X436525Y431648D01*
X436664Y431676D01*
X436803Y431731D01*
X436942Y431814D01*
X437081Y431925D01*
X437220Y432092D01*
X437247Y432120D01*
X437275Y432175D01*
X437331Y432286D01*
X437386Y432425D01*
X437469Y432592D01*
X437525Y432786D01*
X437608Y433258D01*
Y433369D01*
X437636Y433508D01*
X437664Y433702D01*
X437691Y433924D01*
X437719Y434202D01*
X437830Y434785D01*
Y434813D01*
X437858Y434924D01*
X437886Y435063D01*
X437941Y435285D01*
X438025Y435507D01*
X438080Y435757D01*
X438274Y436284D01*
X438302Y436312D01*
X438330Y436395D01*
X438413Y436534D01*
X438524Y436701D01*
X438663Y436867D01*
X438830Y437061D01*
X439052Y437256D01*
X439329Y437450D01*
X439357Y437478D01*
X439468Y437533D01*
X439663Y437589D01*
X439885Y437672D01*
X440190Y437783D01*
X440523Y437839D01*
X440912Y437894D01*
X441356Y437922D01*
X442050D01*
X442078D01*
X442133D01*
X442189D01*
X442300Y437894D01*
D02*
G37*
G36*
X439718Y426678D02*
X439829Y426623D01*
X439857Y426595D01*
X439885Y426540D01*
X439912Y426428D01*
X439940Y426262D01*
Y423541D01*
X442689D01*
X442716D01*
X442772D01*
X442939Y423486D01*
X443022Y423430D01*
X443077Y423319D01*
X443133Y423208D01*
X443161Y423041D01*
Y421792D01*
X443105Y421626D01*
X443050Y421542D01*
X442966Y421487D01*
X442855Y421431D01*
X442689Y421404D01*
X439940D01*
Y418544D01*
X439885Y418405D01*
X439829Y418322D01*
X439801Y418294D01*
X439746Y418266D01*
X439635Y418239D01*
X439468Y418211D01*
X438330D01*
X438302D01*
X438274D01*
X438108Y418266D01*
X438025Y418322D01*
X437969Y418405D01*
X437914Y418516D01*
X437886Y418683D01*
Y421404D01*
X435137D01*
X435110D01*
X435054D01*
X434888Y421459D01*
X434804Y421515D01*
X434721Y421598D01*
X434665Y421709D01*
X434638Y421875D01*
Y423125D01*
X434693Y423291D01*
X434749Y423375D01*
X434860Y423458D01*
X434971Y423513D01*
X435137Y423541D01*
X437886D01*
Y426317D01*
X437941Y426484D01*
X437997Y426567D01*
X438080Y426623D01*
X438191Y426678D01*
X438330Y426706D01*
X439468D01*
X439524D01*
X439607D01*
X439718Y426678D01*
D02*
G37*
G36*
X445132Y337444D02*
X445187Y337389D01*
X445271Y337333D01*
X445298Y337222D01*
X445326Y337084D01*
Y335307D01*
X445271Y335140D01*
X445215Y335085D01*
X445159Y335001D01*
X445048Y334974D01*
X444910Y334946D01*
X434915D01*
X434888D01*
X434804Y334918D01*
X434721Y334863D01*
X434693Y334724D01*
Y330448D01*
X434638Y330282D01*
X434582Y330226D01*
X434527Y330143D01*
X434416Y330115D01*
X434277Y330088D01*
X432916D01*
X432889D01*
X432861D01*
X432722Y330143D01*
X432639Y330199D01*
X432556Y330254D01*
X432528Y330365D01*
X432500Y330504D01*
Y337139D01*
X432556Y337278D01*
X432611Y337361D01*
X432667Y337444D01*
X432778Y337472D01*
X432916Y337500D01*
X444910D01*
X444937D01*
X444965D01*
X445132Y337444D01*
D02*
G37*
G36*
Y328477D02*
X445187Y328422D01*
X445271Y328366D01*
X445298Y328255D01*
X445326Y328116D01*
Y321509D01*
X445271Y321370D01*
X445215Y321287D01*
X445159Y321231D01*
X445048Y321204D01*
X444910Y321176D01*
X443549D01*
X443522D01*
X443494D01*
X443355Y321231D01*
X443188Y321342D01*
X443161Y321426D01*
X443133Y321564D01*
Y325784D01*
X443105Y325868D01*
X443050Y325951D01*
X442911Y325979D01*
X440329D01*
X440301D01*
X440218Y325951D01*
X440135Y325895D01*
X440107Y325757D01*
Y322258D01*
X440051Y322092D01*
X439996Y322036D01*
X439940Y321953D01*
X439829Y321925D01*
X439690Y321898D01*
X438330D01*
X438302D01*
X438274D01*
X438136Y321953D01*
X438052Y322009D01*
X437969Y322064D01*
X437941Y322175D01*
X437914Y322314D01*
Y325784D01*
X437886Y325868D01*
X437830Y325951D01*
X437691Y325979D01*
X434915D01*
X434888D01*
X434804Y325951D01*
X434721Y325895D01*
X434693Y325757D01*
Y321509D01*
X434638Y321370D01*
X434582Y321287D01*
X434527Y321231D01*
X434416Y321204D01*
X434277Y321176D01*
X432916D01*
X432889D01*
X432861D01*
X432722Y321231D01*
X432556Y321342D01*
X432528Y321426D01*
X432500Y321564D01*
Y328172D01*
X432556Y328311D01*
X432611Y328394D01*
X432667Y328477D01*
X432778Y328505D01*
X432916Y328533D01*
X444910D01*
X444937D01*
X444965D01*
X445132Y328477D01*
D02*
G37*
G36*
Y318899D02*
X445187Y318844D01*
X445271Y318788D01*
X445298Y318677D01*
X445326Y318538D01*
Y313347D01*
X445271Y313069D01*
X445215Y312708D01*
X445104Y312320D01*
X444965Y311931D01*
X444743Y311542D01*
X444465Y311181D01*
X444438Y311154D01*
X444299Y311043D01*
X444132Y310904D01*
X443855Y310737D01*
X443522Y310571D01*
X443105Y310432D01*
X442633Y310321D01*
X442078Y310293D01*
X435748D01*
X435720D01*
X435693D01*
X435609D01*
X435498D01*
X435221Y310349D01*
X434860Y310404D01*
X434471Y310515D01*
X434082Y310654D01*
X433694Y310876D01*
X433333Y311181D01*
X433305Y311209D01*
X433194Y311348D01*
X433083Y311542D01*
X432916Y311792D01*
X432778Y312153D01*
X432639Y312570D01*
X432528Y313041D01*
X432500Y313597D01*
Y318594D01*
X432556Y318733D01*
X432611Y318816D01*
X432667Y318899D01*
X432778Y318927D01*
X432916Y318955D01*
X444910D01*
X444937D01*
X444965D01*
X445132Y318899D01*
D02*
G37*
G36*
X383840Y73630D02*
X384118Y73602D01*
X384479Y73546D01*
X384868Y73463D01*
X385284Y73297D01*
X385673Y73102D01*
X386034Y72825D01*
X386061Y72797D01*
X386172Y72658D01*
X386311Y72464D01*
X386450Y72186D01*
X386617Y71853D01*
X386755Y71437D01*
X386866Y70937D01*
X386894Y70381D01*
Y69993D01*
Y69965D01*
Y69937D01*
X386839Y69771D01*
X386783Y69715D01*
X386728Y69632D01*
X386617Y69604D01*
X386478Y69576D01*
X384729D01*
X384562Y69632D01*
X384507Y69688D01*
X384423Y69743D01*
X384396Y69854D01*
X384368Y69993D01*
Y70159D01*
Y70187D01*
Y70271D01*
X384340Y70409D01*
Y70576D01*
X384229Y70909D01*
X384174Y71076D01*
X384062Y71187D01*
X384035D01*
X384007Y71242D01*
X383924Y71270D01*
X383813Y71325D01*
X383646Y71381D01*
X383452Y71409D01*
X383230Y71464D01*
X381897D01*
X381758Y71437D01*
X381592D01*
X381231Y71353D01*
X381064Y71270D01*
X380925Y71187D01*
X380898Y71159D01*
X380870Y71131D01*
X380814Y71048D01*
X380759Y70937D01*
X380703Y70770D01*
X380676Y70576D01*
X380620Y70326D01*
Y70048D01*
Y69826D01*
Y69798D01*
Y69743D01*
X380648Y69632D01*
X380676Y69493D01*
X380731Y69354D01*
X380814Y69215D01*
X380925Y69077D01*
X381092Y68938D01*
X381120Y68910D01*
X381175Y68882D01*
X381286Y68827D01*
X381425Y68771D01*
X381592Y68688D01*
X381786Y68632D01*
X382258Y68549D01*
X382369D01*
X382508Y68521D01*
X382702Y68494D01*
X382924Y68466D01*
X383202Y68438D01*
X383785Y68327D01*
X383813D01*
X383924Y68299D01*
X384062Y68272D01*
X384285Y68216D01*
X384507Y68133D01*
X384757Y68077D01*
X385284Y67883D01*
X385312Y67855D01*
X385395Y67827D01*
X385534Y67744D01*
X385700Y67633D01*
X385867Y67494D01*
X386061Y67328D01*
X386256Y67106D01*
X386450Y66828D01*
X386478Y66800D01*
X386533Y66689D01*
X386589Y66495D01*
X386672Y66273D01*
X386783Y65967D01*
X386839Y65634D01*
X386894Y65245D01*
X386922Y64801D01*
Y64107D01*
Y64079D01*
Y64024D01*
Y63969D01*
X386894Y63857D01*
X386866Y63552D01*
X386811Y63219D01*
X386700Y62830D01*
X386561Y62414D01*
X386339Y62025D01*
X386061Y61692D01*
X386006Y61664D01*
X385895Y61553D01*
X385700Y61414D01*
X385423Y61248D01*
X385062Y61109D01*
X384646Y60970D01*
X384146Y60859D01*
X383591Y60831D01*
X381342D01*
X381064Y60887D01*
X380703Y60942D01*
X380315Y61053D01*
X379898Y61192D01*
X379510Y61414D01*
X379149Y61692D01*
X379121Y61720D01*
X379010Y61859D01*
X378871Y62025D01*
X378704Y62303D01*
X378538Y62636D01*
X378399Y63052D01*
X378288Y63552D01*
X378260Y64107D01*
Y64468D01*
Y64496D01*
Y64524D01*
X378316Y64662D01*
X378371Y64746D01*
X378427Y64829D01*
X378538Y64857D01*
X378677Y64885D01*
X380426D01*
X380592Y64829D01*
X380676Y64774D01*
X380731Y64718D01*
X380787Y64607D01*
X380814Y64468D01*
Y64357D01*
Y64329D01*
Y64218D01*
X380842Y64107D01*
Y63941D01*
X380953Y63580D01*
X381009Y63413D01*
X381120Y63302D01*
X381175Y63247D01*
X381259Y63219D01*
X381370Y63163D01*
X381508Y63108D01*
X381703Y63080D01*
X381925Y63025D01*
X383119D01*
X383257Y63052D01*
X383424D01*
X383785Y63163D01*
X383951Y63219D01*
X384090Y63330D01*
Y63358D01*
X384146Y63386D01*
X384174Y63469D01*
X384229Y63580D01*
X384285Y63746D01*
X384312Y63969D01*
X384368Y64218D01*
Y64524D01*
Y64912D01*
Y64940D01*
X384340Y65051D01*
X384285Y65218D01*
X384174Y65412D01*
X383979Y65579D01*
X383840Y65690D01*
X383674Y65773D01*
X383479Y65856D01*
X383257Y65912D01*
X383008Y65967D01*
X382730Y65995D01*
X382647D01*
X382563Y66023D01*
X382452D01*
X382119Y66078D01*
X381730Y66134D01*
X381259Y66217D01*
X380759Y66328D01*
X380231Y66467D01*
X379732Y66661D01*
X379704D01*
X379621Y66717D01*
X379482Y66800D01*
X379315Y66911D01*
X379149Y67050D01*
X378954Y67244D01*
X378760Y67467D01*
X378566Y67744D01*
X378538Y67772D01*
X378482Y67883D01*
X378427Y68050D01*
X378316Y68272D01*
X378232Y68577D01*
X378177Y68910D01*
X378121Y69299D01*
X378094Y69715D01*
Y70381D01*
Y70409D01*
Y70437D01*
Y70520D01*
Y70631D01*
X378149Y70937D01*
X378205Y71270D01*
X378316Y71686D01*
X378455Y72075D01*
X378677Y72464D01*
X378982Y72825D01*
X379010Y72852D01*
X379149Y72963D01*
X379343Y73074D01*
X379593Y73241D01*
X379954Y73380D01*
X380370Y73519D01*
X380842Y73630D01*
X381397Y73657D01*
X383729D01*
X383840Y73630D01*
D02*
G37*
G36*
X376095Y68272D02*
X376178Y68216D01*
X376261Y68133D01*
X376289Y68022D01*
X376317Y67883D01*
Y66717D01*
Y66689D01*
Y66634D01*
X376261Y66495D01*
X376206Y66412D01*
X376150Y66328D01*
X376039Y66301D01*
X375900Y66273D01*
X372042D01*
X371875Y66328D01*
X371819Y66384D01*
X371736Y66467D01*
X371708Y66578D01*
X371681Y66717D01*
Y67883D01*
Y67911D01*
Y67938D01*
X371736Y68105D01*
X371792Y68188D01*
X371847Y68244D01*
X371958Y68299D01*
X372097Y68327D01*
X375956D01*
X376095Y68272D01*
D02*
G37*
G36*
X393363Y73602D02*
X393446Y73546D01*
X393502Y73491D01*
X393557Y73380D01*
X393585Y73241D01*
Y63247D01*
Y63219D01*
X393613Y63136D01*
X393668Y63052D01*
X393807Y63025D01*
X396139D01*
X396278Y62969D01*
X396361Y62913D01*
X396444Y62858D01*
X396472Y62747D01*
X396500Y62608D01*
Y61248D01*
Y61220D01*
Y61192D01*
X396444Y61026D01*
X396389Y60970D01*
X396333Y60887D01*
X396222Y60859D01*
X396083Y60831D01*
X388449D01*
X388310Y60887D01*
X388227Y60942D01*
X388144Y60998D01*
X388116Y61109D01*
X388088Y61248D01*
Y62608D01*
Y62636D01*
Y62664D01*
X388144Y62803D01*
X388199Y62886D01*
X388282Y62969D01*
X388393Y62997D01*
X388532Y63025D01*
X390836D01*
X390920Y63052D01*
X391003Y63108D01*
X391031Y63247D01*
Y73241D01*
Y73269D01*
Y73297D01*
X391086Y73435D01*
X391142Y73519D01*
X391197Y73602D01*
X391308Y73630D01*
X391447Y73657D01*
X393196D01*
X393363Y73602D01*
D02*
G37*
G36*
X105132Y59444D02*
X105187Y59389D01*
X105271Y59333D01*
X105298Y59222D01*
X105326Y59084D01*
Y54059D01*
X105271Y53781D01*
X105215Y53420D01*
X105104Y53031D01*
X104965Y52643D01*
X104743Y52254D01*
X104466Y51893D01*
X104438Y51865D01*
X104299Y51754D01*
X104132Y51616D01*
X103855Y51449D01*
X103522Y51282D01*
X103105Y51144D01*
X102605Y51033D01*
X102050Y51005D01*
X100496D01*
X100468D01*
X100385D01*
X100273D01*
X100135Y51033D01*
X99940Y51060D01*
X99746Y51088D01*
X99274Y51227D01*
X98774Y51449D01*
X98524Y51588D01*
X98274Y51754D01*
X98052Y51949D01*
X97830Y52199D01*
X97664Y52476D01*
X97497Y52782D01*
X97414D01*
X92972Y50644D01*
X92944D01*
X92889Y50616D01*
X92750D01*
X92639Y50644D01*
X92583Y50699D01*
X92528Y50810D01*
X92500Y50977D01*
Y52782D01*
X92528Y52948D01*
X92556Y53115D01*
X92583Y53142D01*
X92639Y53198D01*
X92750Y53281D01*
X92916Y53365D01*
X97220Y55363D01*
Y56752D01*
X97192Y56835D01*
X97136Y56918D01*
X96997Y56946D01*
X92916D01*
X92889D01*
X92861D01*
X92722Y57001D01*
X92639Y57057D01*
X92556Y57112D01*
X92528Y57224D01*
X92500Y57362D01*
Y59139D01*
X92556Y59278D01*
X92611Y59361D01*
X92667Y59444D01*
X92778Y59472D01*
X92916Y59500D01*
X104910D01*
X104937D01*
X104965D01*
X105132Y59444D01*
D02*
G37*
G36*
X103605Y49367D02*
X103771Y49256D01*
X103855Y49200D01*
X103910Y49089D01*
X105049Y47285D01*
Y47257D01*
X105104Y47201D01*
X105132Y47118D01*
X105187Y47007D01*
X105271Y46757D01*
X105326Y46507D01*
Y44842D01*
X105271Y44675D01*
X105215Y44619D01*
X105160Y44536D01*
X105049Y44508D01*
X104910Y44481D01*
X92916D01*
X92889D01*
X92778D01*
X92667Y44508D01*
X92583Y44564D01*
Y44592D01*
X92556Y44619D01*
X92528Y44731D01*
X92500Y44869D01*
Y46646D01*
X92556Y46785D01*
X92611Y46868D01*
X92667Y46951D01*
X92778Y46979D01*
X92916Y47007D01*
X102633D01*
X101523Y48978D01*
Y49006D01*
X101495Y49034D01*
Y49256D01*
X101551Y49339D01*
X101634Y49367D01*
X101773Y49395D01*
X103411D01*
X103438D01*
X103466D01*
X103605Y49367D01*
D02*
G37*
G36*
Y42704D02*
X103771Y42593D01*
X103855Y42537D01*
X103910Y42426D01*
X105049Y40622D01*
Y40594D01*
X105104Y40538D01*
X105132Y40455D01*
X105187Y40344D01*
X105271Y40094D01*
X105326Y39844D01*
Y38179D01*
X105271Y38012D01*
X105215Y37957D01*
X105160Y37873D01*
X105049Y37845D01*
X104910Y37818D01*
X92916D01*
X92889D01*
X92778D01*
X92667Y37845D01*
X92583Y37901D01*
Y37929D01*
X92556Y37957D01*
X92528Y38068D01*
X92500Y38206D01*
Y39983D01*
X92556Y40122D01*
X92611Y40205D01*
X92667Y40289D01*
X92778Y40316D01*
X92916Y40344D01*
X102633D01*
X101523Y42315D01*
Y42343D01*
X101495Y42371D01*
Y42593D01*
X101551Y42676D01*
X101634Y42704D01*
X101773Y42732D01*
X103411D01*
X103438D01*
X103466D01*
X103605Y42704D01*
D02*
G37*
G36*
X184276Y71443D02*
X184359Y71387D01*
X184443Y71332D01*
X184471Y71221D01*
X184498Y71082D01*
Y59089D01*
Y59061D01*
Y59033D01*
X184443Y58866D01*
X184387Y58811D01*
X184332Y58728D01*
X184221Y58700D01*
X184082Y58672D01*
X179057D01*
X178779Y58728D01*
X178418Y58783D01*
X178030Y58894D01*
X177641Y59033D01*
X177252Y59255D01*
X176891Y59533D01*
X176864Y59560D01*
X176753Y59699D01*
X176614Y59866D01*
X176447Y60143D01*
X176281Y60477D01*
X176142Y60893D01*
X176031Y61393D01*
X176003Y61948D01*
Y63503D01*
Y63530D01*
Y63614D01*
Y63725D01*
X176031Y63864D01*
X176059Y64058D01*
X176086Y64252D01*
X176225Y64724D01*
X176447Y65224D01*
X176586Y65474D01*
X176753Y65724D01*
X176947Y65946D01*
X177197Y66168D01*
X177474Y66334D01*
X177780Y66501D01*
Y66584D01*
X175642Y71026D01*
Y71054D01*
X175614Y71109D01*
Y71248D01*
X175642Y71359D01*
X175698Y71415D01*
X175809Y71470D01*
X175975Y71498D01*
X177780D01*
X177946Y71470D01*
X178113Y71443D01*
X178141Y71415D01*
X178196Y71359D01*
X178279Y71248D01*
X178363Y71082D01*
X180362Y66779D01*
X181750D01*
X181833Y66806D01*
X181916Y66862D01*
X181944Y67001D01*
Y71082D01*
Y71109D01*
Y71137D01*
X182000Y71276D01*
X182055Y71359D01*
X182111Y71443D01*
X182222Y71470D01*
X182360Y71498D01*
X184137D01*
X184276Y71443D01*
D02*
G37*
G36*
X171783D02*
X171866Y71387D01*
X171950Y71332D01*
X171978Y71221D01*
X172005Y71082D01*
Y61365D01*
X173976Y62476D01*
X174004D01*
X174032Y62503D01*
X174254D01*
X174337Y62448D01*
X174365Y62364D01*
X174393Y62226D01*
Y60588D01*
Y60560D01*
Y60532D01*
X174365Y60393D01*
X174254Y60227D01*
X174198Y60143D01*
X174087Y60088D01*
X172283Y58950D01*
X172255D01*
X172200Y58894D01*
X172116Y58866D01*
X172005Y58811D01*
X171755Y58728D01*
X171506Y58672D01*
X169840D01*
X169673Y58728D01*
X169618Y58783D01*
X169534Y58839D01*
X169507Y58950D01*
X169479Y59089D01*
Y71082D01*
Y71109D01*
Y71221D01*
X169507Y71332D01*
X169562Y71415D01*
X169590D01*
X169618Y71443D01*
X169729Y71470D01*
X169868Y71498D01*
X171644D01*
X171783Y71443D01*
D02*
G37*
G36*
X164093Y71470D02*
X164371Y71443D01*
X164732Y71387D01*
X165120Y71304D01*
X165509Y71137D01*
X165898Y70943D01*
X166259Y70665D01*
X166286Y70638D01*
X166397Y70499D01*
X166536Y70304D01*
X166675Y70054D01*
X166842Y69721D01*
X166980Y69305D01*
X167091Y68805D01*
X167119Y68250D01*
Y61920D01*
Y61892D01*
Y61837D01*
Y61781D01*
X167091Y61670D01*
X167064Y61365D01*
X167008Y61032D01*
X166897Y60643D01*
X166758Y60227D01*
X166536Y59838D01*
X166259Y59505D01*
X166231Y59477D01*
X166092Y59366D01*
X165898Y59227D01*
X165620Y59089D01*
X165287Y58922D01*
X164870Y58811D01*
X164398Y58700D01*
X163843Y58672D01*
X161594D01*
X161289Y58728D01*
X160956Y58783D01*
X160539Y58894D01*
X160151Y59033D01*
X159762Y59255D01*
X159401Y59533D01*
X159373Y59560D01*
X159262Y59699D01*
X159124Y59866D01*
X158957Y60143D01*
X158818Y60477D01*
X158679Y60893D01*
X158568Y61365D01*
X158541Y61920D01*
Y68250D01*
Y68278D01*
Y68306D01*
Y68389D01*
Y68500D01*
X158596Y68777D01*
X158652Y69138D01*
X158763Y69527D01*
X158902Y69916D01*
X159124Y70304D01*
X159401Y70665D01*
X159429Y70693D01*
X159568Y70804D01*
X159762Y70915D01*
X160040Y71082D01*
X160373Y71221D01*
X160789Y71359D01*
X161289Y71470D01*
X161844Y71498D01*
X163982D01*
X164093Y71470D01*
D02*
G37*
%LPC*%
G36*
X442911Y316401D02*
X434915D01*
X434888D01*
X434804Y316373D01*
X434721Y316317D01*
X434693Y316179D01*
Y313902D01*
X434721Y313791D01*
Y313652D01*
X434804Y313347D01*
X434860Y313208D01*
X434943Y313097D01*
X434971D01*
X434999Y313041D01*
X435054Y313014D01*
X435165Y312958D01*
X435276Y312903D01*
X435443Y312875D01*
X435637Y312819D01*
X435859D01*
X441967D01*
X441995D01*
X442078D01*
X442189D01*
X442328Y312847D01*
X442605Y312930D01*
X442744Y313014D01*
X442855Y313097D01*
X442911Y313153D01*
X442939Y313208D01*
X442994Y313319D01*
X443050Y313430D01*
X443077Y313597D01*
X443133Y313791D01*
Y316206D01*
X443105Y316290D01*
X443050Y316373D01*
X442911Y316401D01*
D02*
G37*
G36*
X102911Y56946D02*
X99496D01*
X99468D01*
X99385Y56918D01*
X99302Y56863D01*
X99274Y56724D01*
Y54669D01*
X99302Y54558D01*
Y54419D01*
X99385Y54114D01*
X99440Y53975D01*
X99524Y53836D01*
X99552Y53809D01*
X99579Y53781D01*
X99635Y53726D01*
X99746Y53670D01*
X99857Y53614D01*
X100023Y53587D01*
X100190Y53531D01*
X100412D01*
X101967D01*
X101995D01*
X102078D01*
X102189Y53559D01*
X102300D01*
X102605Y53670D01*
X102744Y53726D01*
X102855Y53836D01*
X102911Y53892D01*
X102939Y53975D01*
X102994Y54059D01*
X103050Y54197D01*
X103077Y54364D01*
X103133Y54558D01*
Y56752D01*
X103105Y56835D01*
X103050Y56918D01*
X102911Y56946D01*
D02*
G37*
G36*
X181722Y64724D02*
X179668D01*
X179557Y64696D01*
X179418D01*
X179112Y64613D01*
X178974Y64558D01*
X178835Y64474D01*
X178807Y64447D01*
X178779Y64419D01*
X178724Y64363D01*
X178668Y64252D01*
X178613Y64141D01*
X178585Y63975D01*
X178529Y63808D01*
Y63586D01*
Y62031D01*
Y62003D01*
Y61920D01*
X178557Y61809D01*
Y61698D01*
X178668Y61393D01*
X178724Y61254D01*
X178835Y61143D01*
X178890Y61087D01*
X178974Y61060D01*
X179057Y61004D01*
X179196Y60949D01*
X179362Y60921D01*
X179557Y60865D01*
X181750D01*
X181833Y60893D01*
X181916Y60949D01*
X181944Y61087D01*
Y64502D01*
Y64530D01*
X181916Y64613D01*
X181861Y64696D01*
X181722Y64724D01*
D02*
G37*
G36*
X163621Y69305D02*
X162122D01*
X162011Y69277D01*
X161872D01*
X161594Y69194D01*
X161456Y69138D01*
X161345Y69055D01*
Y69027D01*
X161289Y69000D01*
X161261Y68944D01*
X161206Y68833D01*
X161150Y68722D01*
X161122Y68555D01*
X161067Y68361D01*
Y68139D01*
Y62031D01*
Y62003D01*
Y61920D01*
Y61809D01*
X161095Y61670D01*
X161178Y61393D01*
X161261Y61254D01*
X161345Y61143D01*
X161400Y61087D01*
X161456Y61060D01*
X161539Y61004D01*
X161678Y60949D01*
X161817Y60921D01*
X162011Y60865D01*
X163621D01*
X163760Y60893D01*
X164065Y60976D01*
X164204Y61060D01*
X164315Y61143D01*
X164343Y61198D01*
X164398Y61254D01*
X164426Y61337D01*
X164482Y61476D01*
X164537Y61615D01*
X164565Y61809D01*
Y62031D01*
Y68139D01*
Y68167D01*
Y68250D01*
X164537Y68361D01*
Y68500D01*
X164454Y68805D01*
X164398Y68944D01*
X164315Y69055D01*
X164287D01*
X164260Y69083D01*
X164204Y69138D01*
X164093Y69166D01*
X163982Y69222D01*
X163815Y69277D01*
X163621Y69305D01*
D02*
G37*
%LPD*%
D10*
X446055Y377196D02*
X464305D01*
X454670Y368014D02*
Y386264D01*
X446055Y267196D02*
X464305D01*
X454670Y258014D02*
Y276264D01*
X326196Y41853D02*
Y60103D01*
X317014Y51487D02*
X335264D01*
D12*
X100000Y37000D02*
X110000D01*
X105000Y32000D02*
Y42000D01*
X162000Y54000D02*
Y64000D01*
X157000Y59000D02*
X167000D01*
D33*
X430000Y355000D02*
Y453000D01*
X485000Y355000D02*
Y453000D01*
X430000Y355000D02*
X485000D01*
X430000Y453000D02*
X485000D01*
X430000Y355000D02*
Y453000D01*
X485000Y355000D02*
Y453000D01*
X430000Y355000D02*
X485000D01*
X430000Y453000D02*
X485000D01*
X430000Y245000D02*
Y343000D01*
X485000Y245000D02*
Y343000D01*
X430000Y245000D02*
X485000D01*
X430000Y343000D02*
X485000D01*
X430000Y245000D02*
Y343000D01*
X485000Y245000D02*
Y343000D01*
X430000Y245000D02*
X485000D01*
X430000Y343000D02*
X485000D01*
X304000Y76157D02*
X402000D01*
X304000Y21158D02*
X402000D01*
X304000D02*
Y76157D01*
X402000Y21158D02*
Y76157D01*
X304000D02*
X402000D01*
X304000Y21158D02*
X402000D01*
X304000D02*
Y76157D01*
X402000Y21158D02*
Y76157D01*
X92500Y14500D02*
Y59500D01*
X117500Y14500D02*
Y59500D01*
X92500Y14500D02*
X117500D01*
X92500Y59500D02*
X117500D01*
X139500Y71500D02*
X184500D01*
X139500Y46500D02*
X184500D01*
X139500D02*
Y71500D01*
X184500Y46500D02*
Y71500D01*
M02*
