M48
;Layer_Color=9474304
;FILE_FORMAT=4:4
METRIC,LZ
;TYPE=PLATED
T1F00S00C0.8000
T2F00S00C1.0200
T3F00S00C1.1500
T4F00S00C1.5000
T5F00S00C3.2000
%
T01
X00029Y00244
Y00312
Y00349
Y00417
T02
X00339Y00051157
X00369
X00455Y0028
Y0031
Y0039
Y0042
T03
X00041Y00106
Y00173
X00086Y00261
X00151
X00216
X00281
X00346
X00231Y00173
Y00106
X00216Y00471
X00281
X00346
X00151
X00086
T04
X003075Y00070158
X003985Y00070157
X00436Y002485
X00436Y003395
X00436Y003585
X00436Y004495
T05
X0003Y0003
X0047
Y0047
X0003
M30
